M48
;Layer_Color=9474304
;FILE_FORMAT=4:3
METRIC,LZ
;TYPE=PLATED
T1F00S00C0.711
T2F00S00C1.016
T3F00S00C1.100
T4F00S00C3.000
T5F00S00C3.200
;TYPE=NON_PLATED
T6F00S00C1.780
%
T01
X005588Y0035814
X005969
X0068707Y00381
X005194Y0047752
X0059944Y006477
X0064389Y0064643
Y0066294
Y0068072
X0059944Y0069977
T02
X004953Y00381
Y004064
Y006096
Y00635
T03
X004572Y003683
Y004191
Y005969
Y006477
X005854Y004699
X007354
T04
X00381Y003302
Y004572
Y005588
Y006858
T05
X002794Y002794
X007366
Y007366
X002794
T06
X007283Y005969
M30
