G04*
G04 #@! TF.GenerationSoftware,Altium Limited,Altium Designer,22.5.1 (42)*
G04*
G04 Layer_Color=8388736*
%FSLAX43Y43*%
%MOMM*%
G71*
G04*
G04 #@! TF.SameCoordinates,A77E8290-A955-47A2-8026-EEB05ABB935E*
G04*
G04*
G04 #@! TF.FilePolarity,Positive*
G04*
G01*
G75*
%ADD56C,0.100*%
D56*
X75310Y33400D02*
Y42565D01*
X75417Y30900D02*
X75117D01*
Y31050D01*
X75167Y31100D01*
X75267D01*
X75317Y31050D01*
Y30900D01*
X75167Y31400D02*
X75117Y31350D01*
Y31250D01*
X75167Y31200D01*
X75367D01*
X75417Y31250D01*
Y31350D01*
X75367Y31400D01*
X75117Y31500D02*
X75417D01*
Y31650D01*
X75367Y31700D01*
X75317D01*
X75267Y31650D01*
Y31500D01*
Y31650D01*
X75217Y31700D01*
X75167D01*
X75117Y31650D01*
Y31500D01*
Y32300D02*
Y32100D01*
X75417D01*
Y32300D01*
X75267Y32100D02*
Y32200D01*
X75117Y32400D02*
X75417D01*
Y32549D01*
X75367Y32599D01*
X75167D01*
X75117Y32549D01*
Y32400D01*
X75167Y32899D02*
X75117Y32849D01*
Y32749D01*
X75167Y32699D01*
X75367D01*
X75417Y32749D01*
Y32849D01*
X75367Y32899D01*
X75267D01*
Y32799D01*
X75117Y33199D02*
Y32999D01*
X75417D01*
Y33199D01*
X75267Y32999D02*
Y33099D01*
M02*
