G04*
G04 #@! TF.GenerationSoftware,Altium Limited,Altium Designer,22.5.1 (42)*
G04*
G04 Layer_Color=32768*
%FSLAX43Y43*%
%MOMM*%
G71*
G04*
G04 #@! TF.SameCoordinates,A77E8290-A955-47A2-8026-EEB05ABB935E*
G04*
G04*
G04 #@! TF.FilePolarity,Positive*
G04*
G01*
G75*
%ADD13C,0.200*%
%ADD15C,0.152*%
%ADD56C,0.100*%
%ADD59C,0.050*%
G36*
X48006Y36703D02*
X51054D01*
Y42037D01*
X48006D01*
Y36703D01*
D02*
G37*
G36*
Y59563D02*
X51054D01*
Y64897D01*
X48006D01*
Y59563D01*
D02*
G37*
D13*
X57800Y51255D02*
Y68300D01*
X76057D01*
Y51255D02*
Y68300D01*
X57800Y51255D02*
X76057D01*
X60740Y36845D02*
Y40045D01*
X58640Y36845D02*
X60740D01*
X58640D02*
Y40045D01*
X60740D01*
X56930Y36845D02*
Y40045D01*
X54830Y36845D02*
X56930D01*
X54830D02*
Y40045D01*
X56930D01*
D15*
X48006Y59563D02*
X51054D01*
X48006D02*
Y64897D01*
X51054D01*
Y59563D02*
Y64897D01*
X48006Y36703D02*
X51054D01*
X48006D02*
Y42037D01*
X51054D01*
Y36703D02*
Y42037D01*
D56*
X66040Y46490D02*
Y47490D01*
X65540Y46990D02*
X66540D01*
X62525Y73660D02*
X63025D01*
X62775Y73410D02*
Y73910D01*
X62525Y71120D02*
X63025D01*
X62775Y70870D02*
Y71370D01*
X57150Y69350D02*
Y70350D01*
X56650Y69850D02*
X57650D01*
X57150Y64270D02*
Y65270D01*
X56650Y64770D02*
X57650D01*
X51570Y50800D02*
X52570D01*
X52070Y50300D02*
Y51300D01*
X56650Y50800D02*
X57650D01*
X57150Y50300D02*
Y51300D01*
X66040Y40140D02*
Y41140D01*
X65540Y40640D02*
X66540D01*
X66040Y35060D02*
Y36060D01*
X65540Y35560D02*
X66540D01*
X73160Y38100D02*
X74160D01*
X73660Y37600D02*
Y38600D01*
D59*
X57640Y49040D02*
X74440D01*
X57640Y44940D02*
X74440D01*
Y49040D01*
X57640Y44940D02*
Y49040D01*
X61650Y73152D02*
X63900D01*
Y73160D02*
Y74160D01*
X61650D02*
X63900D01*
X61650Y73160D02*
Y74160D01*
Y70612D02*
X63900D01*
Y70620D02*
Y71620D01*
X61650D02*
X63900D01*
X61650Y70620D02*
Y71620D01*
X55000Y71150D02*
X59300D01*
X55000Y68550D02*
X59300D01*
X55000D02*
Y71150D01*
X59300Y68550D02*
Y71150D01*
X55000Y66070D02*
X59300D01*
X55000Y63470D02*
X59300D01*
X55000D02*
Y66070D01*
X59300Y63470D02*
Y66070D01*
X54120Y48450D02*
Y53150D01*
X50020Y48450D02*
Y53150D01*
X54120D01*
X50020Y48450D02*
X54120D01*
X56150Y49100D02*
Y52500D01*
X58150Y49100D02*
Y52500D01*
X56150Y49100D02*
X58150D01*
X56150Y52500D02*
X58150D01*
X62940Y39240D02*
X69140D01*
X62940Y42040D02*
X69140D01*
Y39240D02*
Y42040D01*
X62940Y39240D02*
Y42040D01*
Y34160D02*
X69140D01*
X62940Y36960D02*
X69140D01*
Y34160D02*
Y36960D01*
X62940Y34160D02*
Y36960D01*
X70410Y42300D02*
X76540D01*
Y33900D02*
Y42300D01*
X70410Y33900D02*
X76540D01*
X70410D02*
Y42300D01*
M02*
