G04*
G04 #@! TF.GenerationSoftware,Altium Limited,Altium Designer,22.5.1 (42)*
G04*
G04 Layer_Color=65535*
%FSLAX43Y43*%
%MOMM*%
G71*
G04*
G04 #@! TF.SameCoordinates,A77E8290-A955-47A2-8026-EEB05ABB935E*
G04*
G04*
G04 #@! TF.FilePolarity,Positive*
G04*
G01*
G75*
%ADD10C,0.250*%
%ADD11C,0.508*%
%ADD12C,0.254*%
%ADD13C,0.200*%
%ADD14C,0.400*%
%ADD15C,0.152*%
%ADD16R,0.778X2.600*%
D10*
X50345Y49600D02*
G03*
X50345Y49600I-125J0D01*
G01*
X62615Y40640D02*
G03*
X62615Y40640I-125J0D01*
G01*
Y35560D02*
G03*
X62615Y35560I-125J0D01*
G01*
X70085Y36800D02*
G03*
X70085Y36800I-125J0D01*
G01*
D11*
X53086Y63500D02*
G03*
X53086Y63500I-381J0D01*
G01*
Y40640D02*
G03*
X53086Y40640I-381J0D01*
G01*
D12*
X24975Y29820D02*
X47175D01*
X24975Y48920D02*
X36075D01*
X47175D01*
X24975Y29820D02*
Y48920D01*
X47175Y29820D02*
Y48920D01*
X52578Y69723D02*
Y70485D01*
X49530D02*
X52578D01*
X49530Y68453D02*
Y70485D01*
Y68453D02*
X52578D01*
Y69723D01*
X24975Y52680D02*
X47175D01*
X24975Y71780D02*
X36075D01*
X47175D01*
X24975Y52680D02*
Y71780D01*
X47175Y52680D02*
Y71780D01*
X25400Y25400D02*
Y76200D01*
X76200D01*
Y63500D02*
Y76200D01*
Y46990D02*
Y62230D01*
Y25400D02*
Y48260D01*
X73435Y71735D02*
X75560D01*
X72673Y75610D02*
X74497D01*
X71760Y71735D02*
X73435D01*
X71760D02*
Y75610D01*
X72673D01*
X75560Y71735D02*
Y75610D01*
X74497D02*
X75560D01*
X73435Y26015D02*
X75560D01*
X72673Y29890D02*
X74497D01*
X71760Y26015D02*
X73435D01*
X71760D02*
Y29890D01*
X72673D01*
X75560Y26015D02*
Y29890D01*
X74497D02*
X75560D01*
X25400Y25400D02*
X76200D01*
X28778Y75610D02*
X29840D01*
Y71735D02*
Y75610D01*
X26040D02*
X26952D01*
X26040Y71735D02*
Y75610D01*
Y71735D02*
X27715D01*
X26952Y75610D02*
X28778D01*
X27715Y71735D02*
X29840D01*
X28778Y29890D02*
X29840D01*
Y26015D02*
Y29890D01*
X26040D02*
X26952D01*
X26040Y26015D02*
Y29890D01*
Y26015D02*
X27715D01*
X26952Y29890D02*
X28778D01*
X27715Y26015D02*
X29840D01*
X31877Y29210D02*
Y28194D01*
X32385D01*
X32554Y28363D01*
Y28533D01*
X32385Y28702D01*
X31877D01*
X32385D01*
X32554Y28871D01*
Y29040D01*
X32385Y29210D01*
X31877D01*
X32893Y28194D02*
Y28871D01*
X33231Y29210D01*
X33570Y28871D01*
Y28194D01*
Y28702D01*
X32893D01*
X33908Y29210D02*
X34585D01*
X34247D01*
Y28194D01*
X34924Y29210D02*
X35601D01*
X35263D01*
Y28194D01*
X36955Y29210D02*
X37294D01*
X37125D01*
Y28194D01*
X36955D01*
X37294D01*
X37802D02*
Y29210D01*
X38479Y28194D01*
Y29210D01*
X39833Y28702D02*
X40510D01*
X40849Y28194D02*
X41357Y28702D01*
X40849Y29210D01*
X64262Y46609D02*
Y47625D01*
X64770D01*
X64939Y47455D01*
Y47117D01*
X64770Y46948D01*
X64262D01*
X65278Y46609D02*
Y47625D01*
X65786D01*
X65955Y47455D01*
Y47117D01*
X65786Y46948D01*
X65278D01*
X65616D02*
X65955Y46609D01*
X66801Y47625D02*
X66463D01*
X66293Y47455D01*
Y46778D01*
X66463Y46609D01*
X66801D01*
X66970Y46778D01*
Y47455D01*
X66801Y47625D01*
X67986Y47455D02*
X67817Y47625D01*
X67478D01*
X67309Y47455D01*
Y46778D01*
X67478Y46609D01*
X67817D01*
X67986Y46778D01*
Y47117D01*
X67648D01*
X32681Y73363D02*
X32512Y73533D01*
X32173D01*
X32004Y73363D01*
Y73194D01*
X32173Y73025D01*
X32512D01*
X32681Y72856D01*
Y72686D01*
X32512Y72517D01*
X32173D01*
X32004Y72686D01*
X33020Y73533D02*
Y73363D01*
X33358Y73025D01*
X33697Y73363D01*
Y73533D01*
X33358Y73025D02*
Y72517D01*
X34712Y73363D02*
X34543Y73533D01*
X34205D01*
X34035Y73363D01*
Y73194D01*
X34205Y73025D01*
X34543D01*
X34712Y72856D01*
Y72686D01*
X34543Y72517D01*
X34205D01*
X34035Y72686D01*
X36575Y73533D02*
X36236D01*
X36067Y73363D01*
Y72686D01*
X36236Y72517D01*
X36575D01*
X36744Y72686D01*
Y73363D01*
X36575Y73533D01*
X37082D02*
Y72686D01*
X37252Y72517D01*
X37590D01*
X37759Y72686D01*
Y73533D01*
X38098D02*
X38775D01*
X38437D01*
Y72517D01*
X40129Y73025D02*
X40806D01*
X41145Y72517D02*
X41653Y73025D01*
X41145Y73533D01*
X45847Y51308D02*
X45339D01*
X45593D01*
Y50038D01*
X45339Y49784D01*
X45085D01*
X44831Y50038D01*
X46355Y49784D02*
X46862D01*
X46608D01*
Y51308D01*
X46355Y51054D01*
X72390Y48768D02*
Y50292D01*
X73152D01*
X73406Y50038D01*
Y49530D01*
X73152Y49276D01*
X72390D01*
X72898D02*
X73406Y48768D01*
X73914Y50038D02*
X74168Y50292D01*
X74676D01*
X74930Y50038D01*
Y49784D01*
X74676Y49530D01*
X74422D01*
X74676D01*
X74930Y49276D01*
Y49022D01*
X74676Y48768D01*
X74168D01*
X73914Y49022D01*
X64517Y71882D02*
Y70358D01*
X65533D01*
X67056Y71882D02*
X66040D01*
Y70358D01*
X67056D01*
X66040Y71120D02*
X66548D01*
X67564Y71882D02*
Y70358D01*
X68326D01*
X68580Y70612D01*
Y71628D01*
X68326Y71882D01*
X67564D01*
X70103Y70358D02*
X69087D01*
X70103Y71374D01*
Y71628D01*
X69849Y71882D01*
X69341D01*
X69087Y71628D01*
X64771Y74422D02*
Y72898D01*
X65786D01*
X67310Y74422D02*
X66294D01*
Y72898D01*
X67310D01*
X66294Y73660D02*
X66802D01*
X67818Y74422D02*
Y72898D01*
X68580D01*
X68834Y73152D01*
Y74168D01*
X68580Y74422D01*
X67818D01*
X69341Y72898D02*
X69849D01*
X69595D01*
Y74422D01*
X69341Y74168D01*
X50673Y72390D02*
X50419Y72644D01*
X49911D01*
X49657Y72390D01*
Y72136D01*
X49911Y71882D01*
X50419D01*
X50673Y71628D01*
Y71374D01*
X50419Y71120D01*
X49911D01*
X49657Y71374D01*
X52196Y72644D02*
X51688D01*
X51942D01*
Y71374D01*
X51688Y71120D01*
X51434D01*
X51181Y71374D01*
X52704Y71120D02*
X53212D01*
X52958D01*
Y72644D01*
X52704Y72390D01*
X56134Y71628D02*
Y73152D01*
X56896D01*
X57150Y72898D01*
Y72390D01*
X56896Y72136D01*
X56134D01*
X56642D02*
X57150Y71628D01*
X57658D02*
X58166D01*
X57912D01*
Y73152D01*
X57658Y72898D01*
X73406Y70612D02*
X72898D01*
X73152D01*
Y69342D01*
X72898Y69088D01*
X72644D01*
X72390Y69342D01*
X74930Y70612D02*
X74422Y70358D01*
X73914Y69850D01*
Y69342D01*
X74168Y69088D01*
X74676D01*
X74930Y69342D01*
Y69596D01*
X74676Y69850D01*
X73914D01*
X55880Y66548D02*
Y68072D01*
X56642D01*
X56896Y67818D01*
Y67310D01*
X56642Y67056D01*
X55880D01*
X56388D02*
X56896Y66548D01*
X58420D02*
X57404D01*
X58420Y67564D01*
Y67818D01*
X58166Y68072D01*
X57658D01*
X57404Y67818D01*
X51054Y55372D02*
Y54102D01*
X51308Y53848D01*
X51816D01*
X52070Y54102D01*
Y55372D01*
X52578Y53848D02*
X53086D01*
X52832D01*
Y55372D01*
X52578Y55118D01*
X58420Y51308D02*
Y52832D01*
X59182D01*
X59436Y52578D01*
Y52070D01*
X59182Y51816D01*
X58420D01*
X58928D02*
X59436Y51308D01*
X60706D02*
Y52832D01*
X59944Y52070D01*
X60960D01*
X64770Y43942D02*
Y42418D01*
X65532D01*
X65786Y42672D01*
Y43688D01*
X65532Y43942D01*
X64770D01*
X67310Y42418D02*
X66294D01*
X67310Y43434D01*
Y43688D01*
X67056Y43942D01*
X66548D01*
X66294Y43688D01*
X65024Y33782D02*
Y32258D01*
X65786D01*
X66040Y32512D01*
Y33528D01*
X65786Y33782D01*
X65024D01*
X66548Y32258D02*
X67056D01*
X66802D01*
Y33782D01*
X66548Y33528D01*
X73406Y33782D02*
X72898D01*
X73152D01*
Y32512D01*
X72898Y32258D01*
X72644D01*
X72390Y32512D01*
X74676Y32258D02*
Y33782D01*
X73914Y33020D01*
X74930D01*
X59436Y42418D02*
X59182Y42672D01*
X58674D01*
X58420Y42418D01*
Y41402D01*
X58674Y41148D01*
X59182D01*
X59436Y41402D01*
X60960Y41148D02*
X59944D01*
X60960Y42164D01*
Y42418D01*
X60706Y42672D01*
X60198D01*
X59944Y42418D01*
X55880D02*
X55626Y42672D01*
X55118D01*
X54864Y42418D01*
Y41402D01*
X55118Y41148D01*
X55626D01*
X55880Y41402D01*
X56388Y41148D02*
X56896D01*
X56642D01*
Y42672D01*
X56388Y42418D01*
X45339Y74041D02*
X44831D01*
X45085D01*
Y72771D01*
X44831Y72517D01*
X44577D01*
X44323Y72771D01*
X46862Y72517D02*
X45847D01*
X46862Y73533D01*
Y73787D01*
X46608Y74041D01*
X46100D01*
X45847Y73787D01*
X49276Y59182D02*
X48768D01*
X49022D01*
Y57912D01*
X48768Y57658D01*
X48514D01*
X48260Y57912D01*
X49784Y58928D02*
X50038Y59182D01*
X50546D01*
X50800Y58928D01*
Y58674D01*
X50546Y58420D01*
X50292D01*
X50546D01*
X50800Y58166D01*
Y57912D01*
X50546Y57658D01*
X50038D01*
X49784Y57912D01*
X49276Y36322D02*
X48768D01*
X49022D01*
Y35052D01*
X48768Y34798D01*
X48514D01*
X48260Y35052D01*
X50800Y36322D02*
X49784D01*
Y35560D01*
X50292Y35814D01*
X50546D01*
X50800Y35560D01*
Y35052D01*
X50546Y34798D01*
X50038D01*
X49784Y35052D01*
D13*
X61040Y45040D02*
Y48940D01*
X71040Y45040D02*
Y48940D01*
X61040Y45040D02*
X71040D01*
X61040Y48940D02*
X71040D01*
X61203Y55063D02*
Y58425D01*
Y62475D02*
Y64317D01*
Y55063D02*
X65580D01*
X61203Y64317D02*
X75080D01*
X72680Y55063D02*
X75080D01*
X50520Y50950D02*
X53620D01*
X50520Y50650D02*
X53620D01*
Y50950D01*
X50520Y50650D02*
Y50950D01*
X56525Y50700D02*
Y50900D01*
X57775Y50700D02*
Y50900D01*
X65440Y41940D02*
X66775D01*
X65440Y39340D02*
Y41940D01*
Y39340D02*
X66775D01*
X65440Y36860D02*
X66775D01*
X65440Y34260D02*
Y36860D01*
Y34260D02*
X66775D01*
X71310Y41850D02*
X72495D01*
X71310Y41700D02*
Y41850D01*
Y34350D02*
X72495D01*
X71310D02*
Y34500D01*
X60415Y38370D02*
Y38520D01*
X58965Y38370D02*
Y38520D01*
X56605Y38370D02*
Y38520D01*
X55155Y38370D02*
Y38520D01*
D14*
X61250Y73260D02*
Y74060D01*
Y70720D02*
Y71520D01*
D15*
X50927Y59690D02*
Y64770D01*
X48133Y59690D02*
X50927D01*
X48133D02*
Y64770D01*
X50927D01*
Y36830D02*
Y41910D01*
X48133Y36830D02*
X50927D01*
X48133D02*
Y41910D01*
X50927D01*
D16*
X65830Y40640D02*
D03*
X65830Y35560D02*
D03*
M02*
