G04*
G04 #@! TF.GenerationSoftware,Altium Limited,Altium Designer,22.5.1 (42)*
G04*
G04 Layer_Physical_Order=2*
G04 Layer_Color=16711680*
%FSLAX43Y43*%
%MOMM*%
G71*
G04*
G04 #@! TF.SameCoordinates,A77E8290-A955-47A2-8026-EEB05ABB935E*
G04*
G04*
G04 #@! TF.FilePolarity,Positive*
G04*
G01*
G75*
%ADD45C,1.780*%
%ADD46C,1.524*%
%ADD50C,4.500*%
%ADD51C,1.650*%
%ADD52R,1.600X1.600*%
%ADD53C,1.600*%
%ADD54C,1.000*%
%ADD55C,1.270*%
G36*
X72194Y74803D02*
X72017Y74538D01*
X71877Y74201D01*
X71806Y73843D01*
Y73477D01*
X71877Y73119D01*
X72017Y72782D01*
X72220Y72478D01*
X72478Y72220D01*
X72782Y72017D01*
X73119Y71877D01*
X73477Y71806D01*
X73843D01*
X74201Y71877D01*
X74538Y72017D01*
X74803Y72194D01*
X74930Y72141D01*
Y29459D01*
X74803Y29406D01*
X74538Y29583D01*
X74201Y29723D01*
X73843Y29794D01*
X73477D01*
X73119Y29723D01*
X72782Y29583D01*
X72478Y29380D01*
X72220Y29122D01*
X72017Y28818D01*
X71877Y28481D01*
X71806Y28123D01*
Y27757D01*
X71877Y27399D01*
X72017Y27062D01*
X72194Y26797D01*
X72141Y26670D01*
X29459D01*
X29406Y26797D01*
X29583Y27062D01*
X29723Y27399D01*
X29794Y27757D01*
Y28123D01*
X29723Y28481D01*
X29583Y28818D01*
X29380Y29122D01*
X29122Y29380D01*
X28818Y29583D01*
X28481Y29723D01*
X28123Y29794D01*
X27757D01*
X27399Y29723D01*
X27062Y29583D01*
X26797Y29406D01*
X26670Y29459D01*
Y72141D01*
X26797Y72194D01*
X27062Y72017D01*
X27399Y71877D01*
X27757Y71806D01*
X28123D01*
X28481Y71877D01*
X28818Y72017D01*
X29122Y72220D01*
X29380Y72478D01*
X29583Y72782D01*
X29723Y73119D01*
X29794Y73477D01*
Y73843D01*
X29723Y74201D01*
X29583Y74538D01*
X29406Y74803D01*
X29459Y74930D01*
X72141D01*
X72194Y74803D01*
D02*
G37*
%LPC*%
G36*
X60071Y70863D02*
Y70104D01*
X60830D01*
X60772Y70320D01*
X60655Y70523D01*
X60490Y70688D01*
X60287Y70805D01*
X60071Y70863D01*
D02*
G37*
G36*
X59817D02*
X59601Y70805D01*
X59398Y70688D01*
X59233Y70523D01*
X59116Y70320D01*
X59058Y70104D01*
X59817D01*
Y70863D01*
D02*
G37*
G36*
X60830Y69850D02*
X60071D01*
Y69091D01*
X60287Y69149D01*
X60490Y69266D01*
X60655Y69431D01*
X60772Y69634D01*
X60830Y69850D01*
D02*
G37*
G36*
X59817D02*
X59058D01*
X59116Y69634D01*
X59233Y69431D01*
X59398Y69266D01*
X59601Y69149D01*
X59817Y69091D01*
Y69850D01*
D02*
G37*
G36*
X38347Y71084D02*
X38227D01*
Y68707D01*
X40604D01*
Y68827D01*
X40508Y69310D01*
X40319Y69766D01*
X40045Y70176D01*
X39696Y70525D01*
X39286Y70799D01*
X38830Y70988D01*
X38347Y71084D01*
D02*
G37*
G36*
X37973D02*
X37853D01*
X37370Y70988D01*
X36914Y70799D01*
X36504Y70525D01*
X36155Y70176D01*
X35881Y69766D01*
X35692Y69310D01*
X35596Y68827D01*
Y68707D01*
X37973D01*
Y71084D01*
D02*
G37*
G36*
X64516Y68958D02*
Y68199D01*
X65275D01*
X65217Y68415D01*
X65100Y68618D01*
X64935Y68783D01*
X64732Y68900D01*
X64516Y68958D01*
D02*
G37*
G36*
X64262D02*
X64046Y68900D01*
X63843Y68783D01*
X63678Y68618D01*
X63561Y68415D01*
X63503Y68199D01*
X64262D01*
Y68958D01*
D02*
G37*
G36*
X65275Y67945D02*
X63503D01*
X63561Y67729D01*
X63678Y67526D01*
X63843Y67361D01*
X64034Y67251D01*
X64044Y67183D01*
X64034Y67115D01*
X63843Y67005D01*
X63678Y66840D01*
X63561Y66637D01*
X63503Y66421D01*
X65275D01*
X65217Y66637D01*
X65100Y66840D01*
X64935Y67005D01*
X64744Y67115D01*
X64734Y67183D01*
X64744Y67251D01*
X64935Y67361D01*
X65100Y67526D01*
X65217Y67729D01*
X65275Y67945D01*
D02*
G37*
G36*
X40604Y68453D02*
X38227D01*
Y66076D01*
X38347D01*
X38830Y66172D01*
X39286Y66361D01*
X39696Y66635D01*
X40045Y66984D01*
X40319Y67394D01*
X40508Y67850D01*
X40604Y68333D01*
Y68453D01*
D02*
G37*
G36*
X37973D02*
X35596D01*
Y68333D01*
X35692Y67850D01*
X35881Y67394D01*
X36155Y66984D01*
X36504Y66635D01*
X36914Y66361D01*
X37370Y66172D01*
X37853Y66076D01*
X37973D01*
Y68453D01*
D02*
G37*
G36*
X60071Y65656D02*
Y64897D01*
X60830D01*
X60772Y65113D01*
X60655Y65316D01*
X60490Y65481D01*
X60287Y65598D01*
X60071Y65656D01*
D02*
G37*
G36*
X59817D02*
X59601Y65598D01*
X59398Y65481D01*
X59233Y65316D01*
X59116Y65113D01*
X59058Y64897D01*
X59817D01*
Y65656D01*
D02*
G37*
G36*
X65275Y66167D02*
X63503D01*
X63561Y65951D01*
X63678Y65748D01*
X63843Y65583D01*
X63931Y65532D01*
Y65405D01*
X63843Y65354D01*
X63678Y65189D01*
X63561Y64986D01*
X63503Y64770D01*
X65275D01*
X65217Y64986D01*
X65100Y65189D01*
X64935Y65354D01*
X64847Y65405D01*
Y65532D01*
X64935Y65583D01*
X65100Y65748D01*
X65217Y65951D01*
X65275Y66167D01*
D02*
G37*
G36*
X60830Y64643D02*
X60071D01*
Y63884D01*
X60287Y63942D01*
X60490Y64059D01*
X60655Y64224D01*
X60772Y64427D01*
X60830Y64643D01*
D02*
G37*
G36*
X59817D02*
X59058D01*
X59116Y64427D01*
X59233Y64224D01*
X59398Y64059D01*
X59601Y63942D01*
X59817Y63884D01*
Y64643D01*
D02*
G37*
G36*
X65275Y64516D02*
X64516D01*
Y63757D01*
X64732Y63815D01*
X64935Y63932D01*
X65100Y64097D01*
X65217Y64300D01*
X65275Y64516D01*
D02*
G37*
G36*
X64262D02*
X63503D01*
X63561Y64300D01*
X63678Y64097D01*
X63843Y63932D01*
X64046Y63815D01*
X64262Y63757D01*
Y64516D01*
D02*
G37*
G36*
X45862Y65849D02*
X45578D01*
X45304Y65775D01*
X45057Y65633D01*
X44857Y65433D01*
X44715Y65186D01*
X44641Y64912D01*
Y64628D01*
X44715Y64354D01*
X44857Y64107D01*
X45057Y63907D01*
X45304Y63765D01*
X45578Y63691D01*
X45862D01*
X46136Y63765D01*
X46383Y63907D01*
X46583Y64107D01*
X46725Y64354D01*
X46799Y64628D01*
Y64912D01*
X46725Y65186D01*
X46583Y65433D01*
X46383Y65633D01*
X46136Y65775D01*
X45862Y65849D01*
D02*
G37*
G36*
X49664Y64516D02*
X49657D01*
Y63627D01*
X50546D01*
Y63634D01*
X50477Y63892D01*
X50343Y64124D01*
X50154Y64313D01*
X49922Y64447D01*
X49664Y64516D01*
D02*
G37*
G36*
X49403D02*
X49396D01*
X49138Y64447D01*
X48906Y64313D01*
X48717Y64124D01*
X48583Y63892D01*
X48514Y63634D01*
Y63627D01*
X49403D01*
Y64516D01*
D02*
G37*
G36*
X50546Y63373D02*
X49657D01*
Y62484D01*
X49664D01*
X49922Y62553D01*
X50154Y62687D01*
X50343Y62876D01*
X50477Y63108D01*
X50546Y63366D01*
Y63373D01*
D02*
G37*
G36*
X49403D02*
X48514D01*
Y63366D01*
X48583Y63108D01*
X48717Y62876D01*
X48906Y62687D01*
X49138Y62553D01*
X49396Y62484D01*
X49403D01*
Y63373D01*
D02*
G37*
G36*
X49664Y61976D02*
X49396D01*
X49138Y61907D01*
X48906Y61773D01*
X48717Y61584D01*
X48583Y61352D01*
X48514Y61094D01*
Y60826D01*
X48583Y60568D01*
X48717Y60336D01*
X48906Y60147D01*
X49138Y60013D01*
X49396Y59944D01*
X49664D01*
X49922Y60013D01*
X50154Y60147D01*
X50343Y60336D01*
X50477Y60568D01*
X50546Y60826D01*
Y61094D01*
X50477Y61352D01*
X50343Y61584D01*
X50154Y61773D01*
X49922Y61907D01*
X49664Y61976D01*
D02*
G37*
G36*
X45862Y60769D02*
X45578D01*
X45304Y60695D01*
X45057Y60553D01*
X44857Y60353D01*
X44715Y60106D01*
X44641Y59832D01*
Y59548D01*
X44715Y59274D01*
X44857Y59027D01*
X45057Y58827D01*
X45304Y58685D01*
X45578Y58611D01*
X45862D01*
X46136Y58685D01*
X46383Y58827D01*
X46583Y59027D01*
X46725Y59274D01*
X46799Y59548D01*
Y59832D01*
X46725Y60106D01*
X46583Y60353D01*
X46383Y60553D01*
X46136Y60695D01*
X45862Y60769D01*
D02*
G37*
G36*
X72981Y60834D02*
X72679D01*
X72388Y60756D01*
X72128Y60605D01*
X71915Y60392D01*
X71764Y60132D01*
X71686Y59841D01*
Y59539D01*
X71764Y59248D01*
X71915Y58988D01*
X72128Y58775D01*
X72388Y58624D01*
X72679Y58546D01*
X72981D01*
X73272Y58624D01*
X73532Y58775D01*
X73745Y58988D01*
X73896Y59248D01*
X73974Y59539D01*
Y59841D01*
X73896Y60132D01*
X73745Y60392D01*
X73532Y60605D01*
X73272Y60756D01*
X72981Y60834D01*
D02*
G37*
G36*
X38347Y58384D02*
X37853D01*
X37370Y58288D01*
X36914Y58099D01*
X36504Y57825D01*
X36155Y57476D01*
X35881Y57066D01*
X35692Y56610D01*
X35596Y56127D01*
Y55633D01*
X35692Y55150D01*
X35881Y54694D01*
X36155Y54284D01*
X36504Y53935D01*
X36914Y53661D01*
X37370Y53472D01*
X37853Y53376D01*
X38347D01*
X38830Y53472D01*
X39286Y53661D01*
X39696Y53935D01*
X40045Y54284D01*
X40319Y54694D01*
X40508Y55150D01*
X40604Y55633D01*
Y56127D01*
X40508Y56610D01*
X40319Y57066D01*
X40045Y57476D01*
X39696Y57825D01*
X39286Y58099D01*
X38830Y58288D01*
X38347Y58384D01*
D02*
G37*
G36*
X52068Y48638D02*
Y47879D01*
X52827D01*
X52769Y48095D01*
X52652Y48298D01*
X52486Y48463D01*
X52284Y48580D01*
X52068Y48638D01*
D02*
G37*
G36*
X51813D02*
X51597Y48580D01*
X51395Y48463D01*
X51229Y48298D01*
X51112Y48095D01*
X51054Y47879D01*
X51813D01*
Y48638D01*
D02*
G37*
G36*
X74594Y48044D02*
X73667D01*
Y47117D01*
X74594D01*
Y48044D01*
D02*
G37*
G36*
X73413D02*
X72486D01*
Y47117D01*
X73413D01*
Y48044D01*
D02*
G37*
G36*
X52827Y47625D02*
X52068D01*
Y46866D01*
X52284Y46924D01*
X52486Y47041D01*
X52652Y47206D01*
X52769Y47409D01*
X52827Y47625D01*
D02*
G37*
G36*
X51813D02*
X51054D01*
X51112Y47409D01*
X51229Y47206D01*
X51395Y47041D01*
X51597Y46924D01*
X51813Y46866D01*
Y47625D01*
D02*
G37*
G36*
X74594Y46863D02*
X73667D01*
Y45936D01*
X74594D01*
Y46863D01*
D02*
G37*
G36*
X73413D02*
X72486D01*
Y45936D01*
X73413D01*
Y46863D01*
D02*
G37*
G36*
X58679Y48044D02*
X58401D01*
X58133Y47972D01*
X57893Y47833D01*
X57697Y47637D01*
X57558Y47397D01*
X57486Y47129D01*
Y46851D01*
X57558Y46583D01*
X57697Y46343D01*
X57893Y46147D01*
X58133Y46008D01*
X58401Y45936D01*
X58679D01*
X58947Y46008D01*
X59187Y46147D01*
X59383Y46343D01*
X59522Y46583D01*
X59594Y46851D01*
Y47129D01*
X59522Y47397D01*
X59383Y47637D01*
X59187Y47833D01*
X58947Y47972D01*
X58679Y48044D01*
D02*
G37*
G36*
X38347Y48224D02*
X38227D01*
Y45847D01*
X40604D01*
Y45967D01*
X40508Y46450D01*
X40319Y46906D01*
X40045Y47316D01*
X39696Y47665D01*
X39286Y47939D01*
X38830Y48128D01*
X38347Y48224D01*
D02*
G37*
G36*
X37973D02*
X37853D01*
X37370Y48128D01*
X36914Y47939D01*
X36504Y47665D01*
X36155Y47316D01*
X35881Y46906D01*
X35692Y46450D01*
X35596Y45967D01*
Y45847D01*
X37973D01*
Y48224D01*
D02*
G37*
G36*
X40604Y45593D02*
X38227D01*
Y43216D01*
X38347D01*
X38830Y43312D01*
X39286Y43501D01*
X39696Y43775D01*
X40045Y44124D01*
X40319Y44534D01*
X40508Y44990D01*
X40604Y45473D01*
Y45593D01*
D02*
G37*
G36*
X37973D02*
X35596D01*
Y45473D01*
X35692Y44990D01*
X35881Y44534D01*
X36155Y44124D01*
X36504Y43775D01*
X36914Y43501D01*
X37370Y43312D01*
X37853Y43216D01*
X37973D01*
Y45593D01*
D02*
G37*
G36*
X45862Y42989D02*
X45578D01*
X45304Y42915D01*
X45057Y42773D01*
X44857Y42573D01*
X44715Y42326D01*
X44641Y42052D01*
Y41768D01*
X44715Y41494D01*
X44857Y41247D01*
X45057Y41047D01*
X45304Y40905D01*
X45578Y40831D01*
X45862D01*
X46136Y40905D01*
X46383Y41047D01*
X46583Y41247D01*
X46725Y41494D01*
X46799Y41768D01*
Y42052D01*
X46725Y42326D01*
X46583Y42573D01*
X46383Y42773D01*
X46136Y42915D01*
X45862Y42989D01*
D02*
G37*
G36*
X49664Y41656D02*
X49657D01*
Y40767D01*
X50546D01*
Y40774D01*
X50477Y41032D01*
X50343Y41264D01*
X50154Y41453D01*
X49922Y41587D01*
X49664Y41656D01*
D02*
G37*
G36*
X49403D02*
X49396D01*
X49138Y41587D01*
X48906Y41453D01*
X48717Y41264D01*
X48583Y41032D01*
X48514Y40774D01*
Y40767D01*
X49403D01*
Y41656D01*
D02*
G37*
G36*
X50546Y40513D02*
X49657D01*
Y39624D01*
X49664D01*
X49922Y39693D01*
X50154Y39827D01*
X50343Y40016D01*
X50477Y40248D01*
X50546Y40506D01*
Y40513D01*
D02*
G37*
G36*
X49403D02*
X48514D01*
Y40506D01*
X48583Y40248D01*
X48717Y40016D01*
X48906Y39827D01*
X49138Y39693D01*
X49396Y39624D01*
X49403D01*
Y40513D01*
D02*
G37*
G36*
X68834Y38986D02*
Y38227D01*
X69593D01*
X69535Y38443D01*
X69418Y38646D01*
X69253Y38811D01*
X69050Y38928D01*
X68834Y38986D01*
D02*
G37*
G36*
X68580D02*
X68364Y38928D01*
X68161Y38811D01*
X67996Y38646D01*
X67879Y38443D01*
X67821Y38227D01*
X68580D01*
Y38986D01*
D02*
G37*
G36*
X69593Y37973D02*
X68834D01*
Y37214D01*
X69050Y37272D01*
X69253Y37389D01*
X69418Y37554D01*
X69535Y37757D01*
X69593Y37973D01*
D02*
G37*
G36*
X68580D02*
X67821D01*
X67879Y37757D01*
X67996Y37554D01*
X68161Y37389D01*
X68364Y37272D01*
X68580Y37214D01*
Y37973D01*
D02*
G37*
G36*
X49664Y39116D02*
X49396D01*
X49138Y39047D01*
X48906Y38913D01*
X48717Y38724D01*
X48583Y38492D01*
X48514Y38234D01*
Y37966D01*
X48583Y37708D01*
X48717Y37476D01*
X48906Y37287D01*
X49138Y37153D01*
X49396Y37084D01*
X49664D01*
X49922Y37153D01*
X50154Y37287D01*
X50343Y37476D01*
X50477Y37708D01*
X50546Y37966D01*
Y38234D01*
X50477Y38492D01*
X50343Y38724D01*
X50154Y38913D01*
X49922Y39047D01*
X49664Y39116D01*
D02*
G37*
G36*
X59817Y36700D02*
Y35941D01*
X60576D01*
X60518Y36157D01*
X60401Y36360D01*
X60236Y36525D01*
X60033Y36642D01*
X59817Y36700D01*
D02*
G37*
G36*
X59563D02*
X59347Y36642D01*
X59144Y36525D01*
X58979Y36360D01*
X58862Y36157D01*
X58804Y35941D01*
X59563D01*
Y36700D01*
D02*
G37*
G36*
X56007D02*
Y35941D01*
X56766D01*
X56708Y36157D01*
X56591Y36360D01*
X56426Y36525D01*
X56223Y36642D01*
X56007Y36700D01*
D02*
G37*
G36*
X55753D02*
X55537Y36642D01*
X55334Y36525D01*
X55169Y36360D01*
X55052Y36157D01*
X54994Y35941D01*
X55753D01*
Y36700D01*
D02*
G37*
G36*
X45862Y37909D02*
X45578D01*
X45304Y37835D01*
X45057Y37693D01*
X44857Y37493D01*
X44715Y37246D01*
X44641Y36972D01*
Y36688D01*
X44715Y36414D01*
X44857Y36167D01*
X45057Y35967D01*
X45304Y35825D01*
X45578Y35751D01*
X45862D01*
X46136Y35825D01*
X46383Y35967D01*
X46583Y36167D01*
X46725Y36414D01*
X46799Y36688D01*
Y36972D01*
X46725Y37246D01*
X46583Y37493D01*
X46383Y37693D01*
X46136Y37835D01*
X45862Y37909D01*
D02*
G37*
G36*
X60576Y35687D02*
X59817D01*
Y34928D01*
X60033Y34986D01*
X60236Y35103D01*
X60401Y35268D01*
X60518Y35471D01*
X60576Y35687D01*
D02*
G37*
G36*
X59563D02*
X58804D01*
X58862Y35471D01*
X58979Y35268D01*
X59144Y35103D01*
X59347Y34986D01*
X59563Y34928D01*
Y35687D01*
D02*
G37*
G36*
X56766D02*
X56007D01*
Y34928D01*
X56223Y34986D01*
X56426Y35103D01*
X56591Y35268D01*
X56708Y35471D01*
X56766Y35687D01*
D02*
G37*
G36*
X55753D02*
X54994D01*
X55052Y35471D01*
X55169Y35268D01*
X55334Y35103D01*
X55537Y34986D01*
X55753Y34928D01*
Y35687D01*
D02*
G37*
G36*
X38347Y35524D02*
X37853D01*
X37370Y35428D01*
X36914Y35239D01*
X36504Y34965D01*
X36155Y34616D01*
X35881Y34206D01*
X35692Y33750D01*
X35596Y33267D01*
Y32773D01*
X35692Y32290D01*
X35881Y31834D01*
X36155Y31424D01*
X36504Y31075D01*
X36914Y30801D01*
X37370Y30612D01*
X37853Y30516D01*
X38347D01*
X38830Y30612D01*
X39286Y30801D01*
X39696Y31075D01*
X40045Y31424D01*
X40319Y31834D01*
X40508Y32290D01*
X40604Y32773D01*
Y33267D01*
X40508Y33750D01*
X40319Y34206D01*
X40045Y34616D01*
X39696Y34965D01*
X39286Y35239D01*
X38830Y35428D01*
X38347Y35524D01*
D02*
G37*
%LPD*%
D45*
X72830Y59690D02*
D03*
D46*
X49530Y60960D02*
D03*
Y63500D02*
D03*
Y38100D02*
D03*
Y40640D02*
D03*
D50*
X38100Y33020D02*
D03*
Y45720D02*
D03*
Y55880D02*
D03*
Y68580D02*
D03*
D51*
X45720Y41910D02*
D03*
Y36830D02*
D03*
Y64770D02*
D03*
Y59690D02*
D03*
D52*
X73540Y46990D02*
D03*
D53*
X58540D02*
D03*
D54*
X73660Y73660D02*
D03*
Y27940D02*
D03*
X27940Y73660D02*
D03*
Y27940D02*
D03*
D55*
X51940Y47752D02*
D03*
X64389Y66294D02*
D03*
Y68072D02*
D03*
Y64643D02*
D03*
X59944Y64770D02*
D03*
Y69977D02*
D03*
X55880Y35814D02*
D03*
X59690D02*
D03*
X68707Y38100D02*
D03*
M02*
