G04*
G04 #@! TF.GenerationSoftware,Altium Limited,Altium Designer,22.5.1 (42)*
G04*
G04 Layer_Color=32768*
%FSLAX43Y43*%
%MOMM*%
G71*
G04*
G04 #@! TF.SameCoordinates,A77E8290-A955-47A2-8026-EEB05ABB935E*
G04*
G04*
G04 #@! TF.FilePolarity,Positive*
G04*
G01*
G75*
%ADD57C,0.025*%
%ADD58C,0.076*%
D57*
X59817Y64389D02*
X60071D01*
X59817D02*
X59944Y64643D01*
X60071Y64389D01*
X59817Y60071D02*
X60071D01*
X59817D02*
X59944Y59817D01*
X60071Y60071D01*
X59944Y59817D02*
Y64643D01*
X50800D02*
X60325D01*
X50800Y59817D02*
X60325D01*
X61087Y62484D02*
X61341D01*
X61087D02*
X61214Y62230D01*
X61341Y62484D01*
X61087Y59563D02*
X61341D01*
X61087D02*
X61214Y59817D01*
X61341Y59563D01*
X61214Y62230D02*
Y63500D01*
Y58547D02*
Y59817D01*
X49530Y62230D02*
X61595D01*
X50800Y59817D02*
X61595D01*
X45593Y63754D02*
X45847D01*
X45593D02*
X45720Y63500D01*
X45847Y63754D01*
X45593Y60706D02*
X45847D01*
X45593D02*
X45720Y60960D01*
X45847Y60706D01*
X45720Y63500D02*
Y64770D01*
Y59690D02*
Y60960D01*
X45339Y63500D02*
X49530D01*
X45339Y60960D02*
X49530D01*
X48006Y49276D02*
Y49530D01*
X48260Y49403D01*
X48006Y49276D02*
X48260Y49403D01*
X51054Y49276D02*
Y49530D01*
X50800Y49403D02*
X51054Y49530D01*
X50800Y49403D02*
X51054Y49276D01*
X46990Y49403D02*
X48260D01*
X50800D02*
X52070D01*
X48260Y49022D02*
Y59817D01*
X50800Y49022D02*
Y59817D01*
X46736Y57531D02*
Y57785D01*
X46990Y57658D01*
X46736Y57531D02*
X46990Y57658D01*
X49784Y57531D02*
Y57785D01*
X49530Y57658D02*
X49784Y57785D01*
X49530Y57658D02*
X49784Y57531D01*
X45720Y57658D02*
X46990D01*
X49530D02*
X50800D01*
X46990Y57277D02*
Y63500D01*
X49530Y57277D02*
Y63500D01*
X59817Y41529D02*
X60071D01*
X59817D02*
X59944Y41783D01*
X60071Y41529D01*
X59817Y37211D02*
X60071D01*
X59817D02*
X59944Y36957D01*
X60071Y37211D01*
X59944Y36957D02*
Y41783D01*
X50800D02*
X60325D01*
X50800Y36957D02*
X60325D01*
X61087Y39624D02*
X61341D01*
X61087D02*
X61214Y39370D01*
X61341Y39624D01*
X61087Y36703D02*
X61341D01*
X61087D02*
X61214Y36957D01*
X61341Y36703D01*
X61214Y39370D02*
Y40640D01*
Y35687D02*
Y36957D01*
X49530Y39370D02*
X61595D01*
X50800Y36957D02*
X61595D01*
X45593Y40894D02*
X45847D01*
X45593D02*
X45720Y40640D01*
X45847Y40894D01*
X45593Y37846D02*
X45847D01*
X45593D02*
X45720Y38100D01*
X45847Y37846D01*
X45720Y40640D02*
Y41910D01*
Y36830D02*
Y38100D01*
X45339Y40640D02*
X49530D01*
X45339Y38100D02*
X49530D01*
X48006Y26416D02*
Y26670D01*
X48260Y26543D01*
X48006Y26416D02*
X48260Y26543D01*
X51054Y26416D02*
Y26670D01*
X50800Y26543D02*
X51054Y26670D01*
X50800Y26543D02*
X51054Y26416D01*
X46990Y26543D02*
X48260D01*
X50800D02*
X52070D01*
X48260Y26162D02*
Y36957D01*
X50800Y26162D02*
Y36957D01*
X46736Y34671D02*
Y34925D01*
X46990Y34798D01*
X46736Y34671D02*
X46990Y34798D01*
X49784Y34671D02*
Y34925D01*
X49530Y34798D02*
X49784Y34925D01*
X49530Y34798D02*
X49784Y34671D01*
X45720Y34798D02*
X46990D01*
X49530D02*
X50800D01*
X46990Y34417D02*
Y40640D01*
X49530Y34417D02*
Y40640D01*
X64897Y62019D02*
X64791Y61913D01*
X64580D01*
X64474Y62019D01*
Y62442D01*
X64580Y62548D01*
X64791D01*
X64897Y62442D01*
Y62019D01*
X64262Y62548D02*
Y62442D01*
X64156D01*
Y62548D01*
X64262D01*
X63733D02*
X63522D01*
X63627D01*
Y61913D01*
X63733Y62019D01*
X63204Y62442D02*
X63098Y62548D01*
X62887D01*
X62781Y62442D01*
Y62019D01*
X62887Y61913D01*
X63098D01*
X63204Y62019D01*
Y62124D01*
X63098Y62230D01*
X62781D01*
X62569Y62548D02*
X62358D01*
X62464D01*
Y62124D01*
X62569D01*
X62040Y62548D02*
Y62124D01*
X61723D01*
X61617Y62230D01*
Y62548D01*
X61406D02*
X60982Y62124D01*
X60453Y62548D02*
Y61913D01*
X60771Y62230D01*
X60348D01*
X60136Y62548D02*
Y62442D01*
X60030D01*
Y62548D01*
X60136D01*
X59607Y62019D02*
X59501Y61913D01*
X59290D01*
X59184Y62019D01*
Y62124D01*
X59290Y62230D01*
X59184Y62336D01*
Y62442D01*
X59290Y62548D01*
X59501D01*
X59607Y62442D01*
Y62336D01*
X59501Y62230D01*
X59607Y62124D01*
Y62019D01*
X59501Y62230D02*
X59290D01*
X58549Y62548D02*
X58972D01*
X58549Y62124D01*
Y62019D01*
X58655Y61913D01*
X58866D01*
X58972Y62019D01*
X57914Y61913D02*
X58126Y62019D01*
X58337Y62230D01*
Y62442D01*
X58232Y62548D01*
X58020D01*
X57914Y62442D01*
Y62336D01*
X58020Y62230D01*
X58337D01*
X57703Y62548D02*
Y62124D01*
X57597D01*
X57491Y62230D01*
Y62548D01*
Y62230D01*
X57385Y62124D01*
X57279Y62230D01*
Y62548D01*
X57068D02*
Y62124D01*
X56962D01*
X56856Y62230D01*
Y62548D01*
Y62230D01*
X56750Y62124D01*
X56645Y62230D01*
Y62548D01*
X66484Y60812D02*
X66379Y60706D01*
X66167D01*
X66061Y60812D01*
Y61235D01*
X66167Y61341D01*
X66379D01*
X66484Y61235D01*
Y60812D01*
X65850Y61341D02*
Y61235D01*
X65744D01*
Y61341D01*
X65850D01*
X65321Y60812D02*
X65215Y60706D01*
X65003D01*
X64898Y60812D01*
Y61235D01*
X65003Y61341D01*
X65215D01*
X65321Y61235D01*
Y60812D01*
X64686Y61235D02*
X64580Y61341D01*
X64369D01*
X64263Y61235D01*
Y60812D01*
X64369Y60706D01*
X64580D01*
X64686Y60812D01*
Y60918D01*
X64580Y61024D01*
X64263D01*
X63628Y60706D02*
X64051D01*
Y61024D01*
X63840Y60918D01*
X63734D01*
X63628Y61024D01*
Y61235D01*
X63734Y61341D01*
X63945D01*
X64051Y61235D01*
X63416Y61341D02*
X63205D01*
X63311D01*
Y60918D01*
X63416D01*
X62887Y61341D02*
Y60918D01*
X62570D01*
X62464Y61024D01*
Y61341D01*
X62253D02*
X61829Y60918D01*
X61195Y61341D02*
X61618D01*
X61195Y60918D01*
Y60812D01*
X61300Y60706D01*
X61512D01*
X61618Y60812D01*
X60983Y61341D02*
Y61235D01*
X60877D01*
Y61341D01*
X60983D01*
X60137D02*
Y60706D01*
X60454Y61024D01*
X60031D01*
X59819Y61341D02*
X59608D01*
X59713D01*
Y60706D01*
X59819Y60812D01*
X59290D02*
X59184Y60706D01*
X58973D01*
X58867Y60812D01*
Y60918D01*
X58973Y61024D01*
X59079D01*
X58973D01*
X58867Y61129D01*
Y61235D01*
X58973Y61341D01*
X59184D01*
X59290Y61235D01*
X58655Y61341D02*
Y60918D01*
X58550D01*
X58444Y61024D01*
Y61341D01*
Y61024D01*
X58338Y60918D01*
X58232Y61024D01*
Y61341D01*
X58021D02*
Y60918D01*
X57915D01*
X57809Y61024D01*
Y61341D01*
Y61024D01*
X57703Y60918D01*
X57597Y61024D01*
Y61341D01*
X45212Y62019D02*
X45106Y61913D01*
X44895D01*
X44789Y62019D01*
Y62442D01*
X44895Y62548D01*
X45106D01*
X45212Y62442D01*
Y62019D01*
X44577Y62548D02*
Y62442D01*
X44471D01*
Y62548D01*
X44577D01*
X44048D02*
X43837D01*
X43942D01*
Y61913D01*
X44048Y62019D01*
X43519Y62548D02*
X43308D01*
X43413D01*
Y62124D01*
X43519D01*
X42990Y62548D02*
Y62124D01*
X42673D01*
X42567Y62230D01*
Y62548D01*
X42355D02*
X41932Y62124D01*
X41297Y62548D02*
X41721D01*
X41297Y62124D01*
Y62019D01*
X41403Y61913D01*
X41615D01*
X41721Y62019D01*
X41086Y62548D02*
Y62442D01*
X40980D01*
Y62548D01*
X41086D01*
X40134Y61913D02*
X40557D01*
Y62230D01*
X40345Y62124D01*
X40239D01*
X40134Y62230D01*
Y62442D01*
X40239Y62548D01*
X40451D01*
X40557Y62442D01*
X39605Y62548D02*
Y61913D01*
X39922Y62230D01*
X39499D01*
X39287Y62548D02*
Y62124D01*
X39181D01*
X39076Y62230D01*
Y62548D01*
Y62230D01*
X38970Y62124D01*
X38864Y62230D01*
Y62548D01*
X38652D02*
Y62124D01*
X38547D01*
X38441Y62230D01*
Y62548D01*
Y62230D01*
X38335Y62124D01*
X38229Y62230D01*
Y62548D01*
X51435Y48366D02*
X51329Y48260D01*
X51118D01*
X51012Y48366D01*
Y48789D01*
X51118Y48895D01*
X51329D01*
X51435Y48789D01*
Y48366D01*
X50800Y48895D02*
Y48789D01*
X50694D01*
Y48895D01*
X50800D01*
X50271D02*
X50060D01*
X50165D01*
Y48260D01*
X50271Y48366D01*
X49742Y48895D02*
X49531D01*
X49636D01*
Y48472D01*
X49742D01*
X49213Y48895D02*
Y48472D01*
X48896D01*
X48790Y48578D01*
Y48895D01*
X48578D02*
X48155Y48472D01*
X47520Y48895D02*
X47944D01*
X47520Y48472D01*
Y48366D01*
X47626Y48260D01*
X47838D01*
X47944Y48366D01*
X47309Y48895D02*
Y48789D01*
X47203D01*
Y48895D01*
X47309D01*
X46357Y48260D02*
X46780D01*
Y48578D01*
X46568Y48472D01*
X46462D01*
X46357Y48578D01*
Y48789D01*
X46462Y48895D01*
X46674D01*
X46780Y48789D01*
X45828Y48895D02*
Y48260D01*
X46145Y48578D01*
X45722D01*
X45510Y48895D02*
Y48472D01*
X45404D01*
X45299Y48578D01*
Y48895D01*
Y48578D01*
X45193Y48472D01*
X45087Y48578D01*
Y48895D01*
X44875D02*
Y48472D01*
X44770D01*
X44664Y48578D01*
Y48895D01*
Y48578D01*
X44558Y48472D01*
X44452Y48578D01*
Y48895D01*
X52705Y56621D02*
X52599Y56515D01*
X52388D01*
X52282Y56621D01*
Y57044D01*
X52388Y57150D01*
X52599D01*
X52705Y57044D01*
Y56621D01*
X52070Y57150D02*
Y57044D01*
X51964D01*
Y57150D01*
X52070D01*
X51541D02*
X51330D01*
X51435D01*
Y56515D01*
X51541Y56621D01*
X51012Y57150D02*
X50801D01*
X50906D01*
Y56727D01*
X51012D01*
X50483Y57150D02*
Y56727D01*
X50166D01*
X50060Y56833D01*
Y57150D01*
X49848D02*
X49425Y56727D01*
X48790Y57150D02*
X49214D01*
X48790Y56727D01*
Y56621D01*
X48896Y56515D01*
X49108D01*
X49214Y56621D01*
X48579Y57150D02*
Y57044D01*
X48473D01*
Y57150D01*
X48579D01*
X47627Y56515D02*
X48050D01*
Y56833D01*
X47838Y56727D01*
X47732D01*
X47627Y56833D01*
Y57044D01*
X47732Y57150D01*
X47944D01*
X48050Y57044D01*
X47098Y57150D02*
Y56515D01*
X47415Y56833D01*
X46992D01*
X46780Y57150D02*
Y56727D01*
X46674D01*
X46569Y56833D01*
Y57150D01*
Y56833D01*
X46463Y56727D01*
X46357Y56833D01*
Y57150D01*
X46145D02*
Y56727D01*
X46040D01*
X45934Y56833D01*
Y57150D01*
Y56833D01*
X45828Y56727D01*
X45722Y56833D01*
Y57150D01*
X64897Y39159D02*
X64791Y39053D01*
X64580D01*
X64474Y39159D01*
Y39582D01*
X64580Y39688D01*
X64791D01*
X64897Y39582D01*
Y39159D01*
X64262Y39688D02*
Y39582D01*
X64156D01*
Y39688D01*
X64262D01*
X63733D02*
X63522D01*
X63627D01*
Y39053D01*
X63733Y39159D01*
X63204Y39582D02*
X63098Y39688D01*
X62887D01*
X62781Y39582D01*
Y39159D01*
X62887Y39053D01*
X63098D01*
X63204Y39159D01*
Y39264D01*
X63098Y39370D01*
X62781D01*
X62569Y39688D02*
X62358D01*
X62464D01*
Y39264D01*
X62569D01*
X62040Y39688D02*
Y39264D01*
X61723D01*
X61617Y39370D01*
Y39688D01*
X61406D02*
X60982Y39264D01*
X60453Y39688D02*
Y39053D01*
X60771Y39370D01*
X60348D01*
X60136Y39688D02*
Y39582D01*
X60030D01*
Y39688D01*
X60136D01*
X59607Y39159D02*
X59501Y39053D01*
X59290D01*
X59184Y39159D01*
Y39264D01*
X59290Y39370D01*
X59184Y39476D01*
Y39582D01*
X59290Y39688D01*
X59501D01*
X59607Y39582D01*
Y39476D01*
X59501Y39370D01*
X59607Y39264D01*
Y39159D01*
X59501Y39370D02*
X59290D01*
X58549Y39688D02*
X58972D01*
X58549Y39264D01*
Y39159D01*
X58655Y39053D01*
X58866D01*
X58972Y39159D01*
X57914Y39053D02*
X58126Y39159D01*
X58337Y39370D01*
Y39582D01*
X58232Y39688D01*
X58020D01*
X57914Y39582D01*
Y39476D01*
X58020Y39370D01*
X58337D01*
X57703Y39688D02*
Y39264D01*
X57597D01*
X57491Y39370D01*
Y39688D01*
Y39370D01*
X57385Y39264D01*
X57279Y39370D01*
Y39688D01*
X57068D02*
Y39264D01*
X56962D01*
X56856Y39370D01*
Y39688D01*
Y39370D01*
X56750Y39264D01*
X56645Y39370D01*
Y39688D01*
X66484Y37952D02*
X66379Y37846D01*
X66167D01*
X66061Y37952D01*
Y38375D01*
X66167Y38481D01*
X66379D01*
X66484Y38375D01*
Y37952D01*
X65850Y38481D02*
Y38375D01*
X65744D01*
Y38481D01*
X65850D01*
X65321Y37952D02*
X65215Y37846D01*
X65003D01*
X64898Y37952D01*
Y38375D01*
X65003Y38481D01*
X65215D01*
X65321Y38375D01*
Y37952D01*
X64686Y38375D02*
X64580Y38481D01*
X64369D01*
X64263Y38375D01*
Y37952D01*
X64369Y37846D01*
X64580D01*
X64686Y37952D01*
Y38058D01*
X64580Y38164D01*
X64263D01*
X63628Y37846D02*
X64051D01*
Y38164D01*
X63840Y38058D01*
X63734D01*
X63628Y38164D01*
Y38375D01*
X63734Y38481D01*
X63945D01*
X64051Y38375D01*
X63416Y38481D02*
X63205D01*
X63311D01*
Y38058D01*
X63416D01*
X62887Y38481D02*
Y38058D01*
X62570D01*
X62464Y38164D01*
Y38481D01*
X62253D02*
X61829Y38058D01*
X61195Y38481D02*
X61618D01*
X61195Y38058D01*
Y37952D01*
X61300Y37846D01*
X61512D01*
X61618Y37952D01*
X60983Y38481D02*
Y38375D01*
X60877D01*
Y38481D01*
X60983D01*
X60137D02*
Y37846D01*
X60454Y38164D01*
X60031D01*
X59819Y38481D02*
X59608D01*
X59713D01*
Y37846D01*
X59819Y37952D01*
X59290D02*
X59184Y37846D01*
X58973D01*
X58867Y37952D01*
Y38058D01*
X58973Y38164D01*
X59079D01*
X58973D01*
X58867Y38269D01*
Y38375D01*
X58973Y38481D01*
X59184D01*
X59290Y38375D01*
X58655Y38481D02*
Y38058D01*
X58550D01*
X58444Y38164D01*
Y38481D01*
Y38164D01*
X58338Y38058D01*
X58232Y38164D01*
Y38481D01*
X58021D02*
Y38058D01*
X57915D01*
X57809Y38164D01*
Y38481D01*
Y38164D01*
X57703Y38058D01*
X57597Y38164D01*
Y38481D01*
X45212Y39159D02*
X45106Y39053D01*
X44895D01*
X44789Y39159D01*
Y39582D01*
X44895Y39688D01*
X45106D01*
X45212Y39582D01*
Y39159D01*
X44577Y39688D02*
Y39582D01*
X44471D01*
Y39688D01*
X44577D01*
X44048D02*
X43837D01*
X43942D01*
Y39053D01*
X44048Y39159D01*
X43519Y39688D02*
X43308D01*
X43413D01*
Y39264D01*
X43519D01*
X42990Y39688D02*
Y39264D01*
X42673D01*
X42567Y39370D01*
Y39688D01*
X42355D02*
X41932Y39264D01*
X41297Y39688D02*
X41721D01*
X41297Y39264D01*
Y39159D01*
X41403Y39053D01*
X41615D01*
X41721Y39159D01*
X41086Y39688D02*
Y39582D01*
X40980D01*
Y39688D01*
X41086D01*
X40134Y39053D02*
X40557D01*
Y39370D01*
X40345Y39264D01*
X40239D01*
X40134Y39370D01*
Y39582D01*
X40239Y39688D01*
X40451D01*
X40557Y39582D01*
X39605Y39688D02*
Y39053D01*
X39922Y39370D01*
X39499D01*
X39287Y39688D02*
Y39264D01*
X39181D01*
X39076Y39370D01*
Y39688D01*
Y39370D01*
X38970Y39264D01*
X38864Y39370D01*
Y39688D01*
X38652D02*
Y39264D01*
X38547D01*
X38441Y39370D01*
Y39688D01*
Y39370D01*
X38335Y39264D01*
X38229Y39370D01*
Y39688D01*
X51435Y25506D02*
X51329Y25400D01*
X51118D01*
X51012Y25506D01*
Y25929D01*
X51118Y26035D01*
X51329D01*
X51435Y25929D01*
Y25506D01*
X50800Y26035D02*
Y25929D01*
X50694D01*
Y26035D01*
X50800D01*
X50271D02*
X50060D01*
X50165D01*
Y25400D01*
X50271Y25506D01*
X49742Y26035D02*
X49531D01*
X49636D01*
Y25612D01*
X49742D01*
X49213Y26035D02*
Y25612D01*
X48896D01*
X48790Y25718D01*
Y26035D01*
X48578D02*
X48155Y25612D01*
X47520Y26035D02*
X47944D01*
X47520Y25612D01*
Y25506D01*
X47626Y25400D01*
X47838D01*
X47944Y25506D01*
X47309Y26035D02*
Y25929D01*
X47203D01*
Y26035D01*
X47309D01*
X46357Y25400D02*
X46780D01*
Y25718D01*
X46568Y25612D01*
X46462D01*
X46357Y25718D01*
Y25929D01*
X46462Y26035D01*
X46674D01*
X46780Y25929D01*
X45828Y26035D02*
Y25400D01*
X46145Y25718D01*
X45722D01*
X45510Y26035D02*
Y25612D01*
X45404D01*
X45299Y25718D01*
Y26035D01*
Y25718D01*
X45193Y25612D01*
X45087Y25718D01*
Y26035D01*
X44875D02*
Y25612D01*
X44770D01*
X44664Y25718D01*
Y26035D01*
Y25718D01*
X44558Y25612D01*
X44452Y25718D01*
Y26035D01*
X52705Y33761D02*
X52599Y33655D01*
X52388D01*
X52282Y33761D01*
Y34184D01*
X52388Y34290D01*
X52599D01*
X52705Y34184D01*
Y33761D01*
X52070Y34290D02*
Y34184D01*
X51964D01*
Y34290D01*
X52070D01*
X51541D02*
X51330D01*
X51435D01*
Y33655D01*
X51541Y33761D01*
X51012Y34290D02*
X50801D01*
X50906D01*
Y33867D01*
X51012D01*
X50483Y34290D02*
Y33867D01*
X50166D01*
X50060Y33973D01*
Y34290D01*
X49848D02*
X49425Y33867D01*
X48790Y34290D02*
X49214D01*
X48790Y33867D01*
Y33761D01*
X48896Y33655D01*
X49108D01*
X49214Y33761D01*
X48579Y34290D02*
Y34184D01*
X48473D01*
Y34290D01*
X48579D01*
X47627Y33655D02*
X48050D01*
Y33973D01*
X47838Y33867D01*
X47732D01*
X47627Y33973D01*
Y34184D01*
X47732Y34290D01*
X47944D01*
X48050Y34184D01*
X47098Y34290D02*
Y33655D01*
X47415Y33973D01*
X46992D01*
X46780Y34290D02*
Y33867D01*
X46674D01*
X46569Y33973D01*
Y34290D01*
Y33973D01*
X46463Y33867D01*
X46357Y33973D01*
Y34290D01*
X46145D02*
Y33867D01*
X46040D01*
X45934Y33973D01*
Y34290D01*
Y33973D01*
X45828Y33867D01*
X45722Y33973D01*
Y34290D01*
D58*
X58103Y82042D02*
Y81196D01*
X57679Y80772D01*
X57256Y81196D01*
Y82042D01*
Y81407D01*
X58103D01*
X56833Y82042D02*
X56410D01*
X56621D01*
Y80772D01*
X56833D01*
X55563Y80984D02*
Y81196D01*
X55775D01*
X55352D01*
X55563D01*
Y81830D01*
X55352Y82042D01*
X53447D02*
Y80772D01*
X52813D01*
X52601Y80984D01*
Y81407D01*
X52813Y81619D01*
X53447D01*
X51966Y81196D02*
X51543D01*
X51331Y81407D01*
Y82042D01*
X51966D01*
X52178Y81830D01*
X51966Y81619D01*
X51331D01*
X50062Y80772D02*
Y82042D01*
X50697D01*
X50908Y81830D01*
Y81407D01*
X50697Y81196D01*
X50062D01*
X49639Y82042D02*
X49004D01*
X48792Y81830D01*
X49004Y81619D01*
X49427D01*
X49639Y81407D01*
X49427Y81196D01*
X48792D01*
X48157Y80984D02*
Y81196D01*
X48369D01*
X47946D01*
X48157D01*
Y81830D01*
X47946Y82042D01*
X47311Y81196D02*
Y81830D01*
X47099Y82042D01*
X46465D01*
Y82254D01*
X46676Y82465D01*
X46888D01*
X46465Y82042D02*
Y81196D01*
X46041Y82042D02*
X45618D01*
X45830D01*
Y80772D01*
X46041D01*
X44349Y82042D02*
X44772D01*
X44983Y81830D01*
Y81407D01*
X44772Y81196D01*
X44349D01*
X44137Y81407D01*
Y81619D01*
X44983D01*
X41598Y82042D02*
X42444D01*
X41598Y81196D01*
Y80984D01*
X41809Y80772D01*
X42233D01*
X42444Y80984D01*
X41175Y81196D02*
X40963D01*
Y81407D01*
X41175D01*
Y81196D01*
Y81830D02*
X40963D01*
Y82042D01*
X41175D01*
Y81830D01*
X38212Y80772D02*
X38635D01*
X38847Y80984D01*
Y81830D01*
X38635Y82042D01*
X38212D01*
X38001Y81830D01*
Y80984D01*
X38212Y80772D01*
X37577D02*
X36731Y82042D01*
Y80772D02*
X37577Y82042D01*
X36308Y81830D02*
X36096Y82042D01*
X35673D01*
X35461Y81830D01*
Y80984D01*
X35673Y80772D01*
X36096D01*
X36308Y80984D01*
Y81196D01*
X36096Y81407D01*
X35461D01*
X35038Y80984D02*
X34827Y80772D01*
X34404D01*
X34192Y80984D01*
Y81830D01*
X34404Y82042D01*
X34827D01*
X35038Y81830D01*
Y80984D01*
X33769Y80772D02*
Y80984D01*
X33346Y81407D01*
X32922Y80984D01*
Y80772D01*
X33346Y81407D02*
Y82042D01*
X31653Y80772D02*
X32076Y80984D01*
X32499Y81407D01*
Y81830D01*
X32288Y82042D01*
X31864D01*
X31653Y81830D01*
Y81619D01*
X31864Y81407D01*
X32499D01*
X31230Y80984D02*
X31018Y80772D01*
X30595D01*
X30383Y80984D01*
Y81830D01*
X30595Y82042D01*
X31018D01*
X31230Y81830D01*
Y80984D01*
X29960Y80772D02*
Y82042D01*
X29325D01*
X29114Y81830D01*
Y80984D01*
X29325Y80772D01*
X29960D01*
X28690Y80984D02*
X28479Y80772D01*
X28056D01*
X27844Y80984D01*
Y81196D01*
X28056Y81407D01*
X28267D01*
X28056D01*
X27844Y81619D01*
Y81830D01*
X28056Y82042D01*
X28479D01*
X28690Y81830D01*
X27421Y80984D02*
X27209Y80772D01*
X26786D01*
X26574Y80984D01*
Y81830D01*
X26786Y82042D01*
X27209D01*
X27421Y81830D01*
Y80984D01*
X26151Y82042D02*
Y80772D01*
X25516D01*
X25305Y80984D01*
Y81407D01*
X25516Y81619D01*
X26151D01*
X58103Y80137D02*
Y79291D01*
X57679Y78867D01*
X57256Y79291D01*
Y80137D01*
Y79502D01*
X58103D01*
X56833Y80137D02*
X56410D01*
X56621D01*
Y78867D01*
X56833D01*
X55563Y79079D02*
Y79291D01*
X55775D01*
X55352D01*
X55563D01*
Y79925D01*
X55352Y80137D01*
X53447D02*
Y78867D01*
X52813D01*
X52601Y79079D01*
Y79502D01*
X52813Y79714D01*
X53447D01*
X51966Y79291D02*
X51543D01*
X51331Y79502D01*
Y80137D01*
X51966D01*
X52178Y79925D01*
X51966Y79714D01*
X51331D01*
X50062Y78867D02*
Y80137D01*
X50697D01*
X50908Y79925D01*
Y79502D01*
X50697Y79291D01*
X50062D01*
X49639Y80137D02*
X49004D01*
X48792Y79925D01*
X49004Y79714D01*
X49427D01*
X49639Y79502D01*
X49427Y79291D01*
X48792D01*
X48157Y79079D02*
Y79291D01*
X48369D01*
X47946D01*
X48157D01*
Y79925D01*
X47946Y80137D01*
X47311Y79291D02*
Y79925D01*
X47099Y80137D01*
X46465D01*
Y80349D01*
X46676Y80560D01*
X46888D01*
X46465Y80137D02*
Y79291D01*
X46041Y80137D02*
X45618D01*
X45830D01*
Y78867D01*
X46041D01*
X44349Y80137D02*
X44772D01*
X44983Y79925D01*
Y79502D01*
X44772Y79291D01*
X44349D01*
X44137Y79502D01*
Y79714D01*
X44983D01*
X42444Y80137D02*
X42021D01*
X42233D01*
Y78867D01*
X42444Y79079D01*
X41386Y79291D02*
X41175D01*
Y79502D01*
X41386D01*
Y79291D01*
Y79925D02*
X41175D01*
Y80137D01*
X41386D01*
Y79925D01*
X38424Y78867D02*
X38847D01*
X39059Y79079D01*
Y79925D01*
X38847Y80137D01*
X38424D01*
X38212Y79925D01*
Y79079D01*
X38424Y78867D01*
X37789D02*
X36943Y80137D01*
Y78867D02*
X37789Y80137D01*
X35673Y78867D02*
X36096Y79079D01*
X36519Y79502D01*
Y79925D01*
X36308Y80137D01*
X35885D01*
X35673Y79925D01*
Y79714D01*
X35885Y79502D01*
X36519D01*
X35250Y79079D02*
X35038Y78867D01*
X34615D01*
X34404Y79079D01*
Y79925D01*
X34615Y80137D01*
X35038D01*
X35250Y79925D01*
Y79079D01*
X33980Y78867D02*
Y79079D01*
X33557Y79502D01*
X33134Y79079D01*
Y78867D01*
X33557Y79502D02*
Y80137D01*
X32711Y79925D02*
X32499Y80137D01*
X32076D01*
X31864Y79925D01*
Y79079D01*
X32076Y78867D01*
X32499D01*
X32711Y79079D01*
Y79291D01*
X32499Y79502D01*
X31864D01*
X31441Y79079D02*
X31230Y78867D01*
X30806D01*
X30595Y79079D01*
Y79925D01*
X30806Y80137D01*
X31230D01*
X31441Y79925D01*
Y79079D01*
X30172Y78867D02*
Y80137D01*
X29537D01*
X29325Y79925D01*
Y79079D01*
X29537Y78867D01*
X30172D01*
X28902Y79079D02*
X28690Y78867D01*
X28267D01*
X28056Y79079D01*
Y79291D01*
X28267Y79502D01*
X28479D01*
X28267D01*
X28056Y79714D01*
Y79925D01*
X28267Y80137D01*
X28690D01*
X28902Y79925D01*
X27632Y79079D02*
X27421Y78867D01*
X26998D01*
X26786Y79079D01*
Y79925D01*
X26998Y80137D01*
X27421D01*
X27632Y79925D01*
Y79079D01*
X26363Y80137D02*
Y78867D01*
X25728D01*
X25516Y79079D01*
Y79502D01*
X25728Y79714D01*
X26363D01*
X59373Y78232D02*
Y76962D01*
X58738D01*
X58526Y77174D01*
Y77597D01*
X58738Y77809D01*
X59373D01*
X58949D02*
X58526Y78232D01*
X58103D02*
X57680D01*
X57891D01*
Y77386D01*
X58103D01*
X56622Y78655D02*
X56410D01*
X56199Y78444D01*
Y77386D01*
X56833D01*
X57045Y77597D01*
Y78020D01*
X56833Y78232D01*
X56199D01*
X55775Y76962D02*
Y78232D01*
Y77597D01*
X55564Y77386D01*
X55141D01*
X54929Y77597D01*
Y78232D01*
X54294Y77174D02*
Y77386D01*
X54506D01*
X54083D01*
X54294D01*
Y78020D01*
X54083Y78232D01*
X52178D02*
Y76962D01*
X51755Y77386D01*
X51332Y76962D01*
Y78232D01*
X50697Y77174D02*
Y77386D01*
X50909D01*
X50485D01*
X50697D01*
Y78020D01*
X50485Y78232D01*
X49427Y78655D02*
X49216D01*
X49004Y78444D01*
Y77386D01*
X49639D01*
X49851Y77597D01*
Y78020D01*
X49639Y78232D01*
X49004D01*
X47311D02*
Y76962D01*
X46677D01*
X46465Y77174D01*
Y77597D01*
X46677Y77809D01*
X47311D01*
X45830Y77386D02*
X45407D01*
X45195Y77597D01*
Y78232D01*
X45830D01*
X46042Y78020D01*
X45830Y77809D01*
X45195D01*
X43926Y76962D02*
Y78232D01*
X44561D01*
X44772Y78020D01*
Y77597D01*
X44561Y77386D01*
X43926D01*
X43503Y78232D02*
X42868D01*
X42656Y78020D01*
X42868Y77809D01*
X43291D01*
X43503Y77597D01*
X43291Y77386D01*
X42656D01*
X42021Y77174D02*
Y77386D01*
X42233D01*
X41810D01*
X42021D01*
Y78020D01*
X41810Y78232D01*
X41175Y77386D02*
Y78020D01*
X40963Y78232D01*
X40329D01*
Y78444D01*
X40540Y78655D01*
X40752D01*
X40329Y78232D02*
Y77386D01*
X39905Y78232D02*
X39482D01*
X39694D01*
Y76962D01*
X39905D01*
X38213Y78232D02*
X38636D01*
X38847Y78020D01*
Y77597D01*
X38636Y77386D01*
X38213D01*
X38001Y77597D01*
Y77809D01*
X38847D01*
X37578Y77386D02*
X37366D01*
Y77597D01*
X37578D01*
Y77386D01*
Y78020D02*
X37366D01*
Y78232D01*
X37578D01*
Y78020D01*
X34404Y76962D02*
X35250D01*
Y78232D01*
X34404D01*
X35250Y77597D02*
X34827D01*
X33981Y76962D02*
X33134Y78232D01*
Y76962D02*
X33981Y78232D01*
X31865Y76962D02*
X32288Y77174D01*
X32711Y77597D01*
Y78020D01*
X32500Y78232D01*
X32076D01*
X31865Y78020D01*
Y77809D01*
X32076Y77597D01*
X32711D01*
X31442Y77174D02*
X31230Y76962D01*
X30807D01*
X30595Y77174D01*
Y78020D01*
X30807Y78232D01*
X31230D01*
X31442Y78020D01*
Y77174D01*
X30172Y76962D02*
Y77174D01*
X29749Y77597D01*
X29326Y77174D01*
Y76962D01*
X29749Y77597D02*
Y78232D01*
X28056Y76962D02*
X28479Y77174D01*
X28902Y77597D01*
Y78020D01*
X28691Y78232D01*
X28268D01*
X28056Y78020D01*
Y77809D01*
X28268Y77597D01*
X28902D01*
X27633Y77174D02*
X27421Y76962D01*
X26998D01*
X26786Y77174D01*
Y78020D01*
X26998Y78232D01*
X27421D01*
X27633Y78020D01*
Y77174D01*
X26363Y76962D02*
Y78232D01*
X25728D01*
X25517Y78020D01*
Y77174D01*
X25728Y76962D01*
X26363D01*
X25094Y77174D02*
X24882Y76962D01*
X24459D01*
X24247Y77174D01*
Y77386D01*
X24459Y77597D01*
X24670D01*
X24459D01*
X24247Y77809D01*
Y78020D01*
X24459Y78232D01*
X24882D01*
X25094Y78020D01*
X23824Y77174D02*
X23612Y76962D01*
X23189D01*
X22978Y77174D01*
Y78020D01*
X23189Y78232D01*
X23612D01*
X23824Y78020D01*
Y77174D01*
X22554Y78232D02*
Y76962D01*
X21920D01*
X21708Y77174D01*
Y77597D01*
X21920Y77809D01*
X22554D01*
X59055Y75057D02*
Y76327D01*
X58209D01*
X57151D02*
X57574D01*
X57785Y76115D01*
Y75692D01*
X57574Y75481D01*
X57151D01*
X56939Y75692D01*
Y75904D01*
X57785D01*
X56304Y76327D02*
Y75269D01*
Y75692D01*
X56516D01*
X56093D01*
X56304D01*
Y75269D01*
X56093Y75057D01*
X55246Y75269D02*
Y75481D01*
X55458D01*
X55035D01*
X55246D01*
Y76115D01*
X55035Y76327D01*
X53130D02*
Y75057D01*
X52707Y75481D01*
X52284Y75057D01*
Y76327D01*
X51649Y75269D02*
Y75481D01*
X51861D01*
X51437D01*
X51649D01*
Y76115D01*
X51437Y76327D01*
X50379Y76750D02*
X50168D01*
X49956Y76539D01*
Y75481D01*
X50591D01*
X50803Y75692D01*
Y76115D01*
X50591Y76327D01*
X49956D01*
X48264D02*
Y75057D01*
X47629D01*
X47417Y75269D01*
Y75692D01*
X47629Y75904D01*
X48264D01*
X46782Y75481D02*
X46359D01*
X46148Y75692D01*
Y76327D01*
X46782D01*
X46994Y76115D01*
X46782Y75904D01*
X46148D01*
X44878Y75057D02*
Y76327D01*
X45513D01*
X45724Y76115D01*
Y75692D01*
X45513Y75481D01*
X44878D01*
X44455Y76327D02*
X43820D01*
X43608Y76115D01*
X43820Y75904D01*
X44243D01*
X44455Y75692D01*
X44243Y75481D01*
X43608D01*
X42974Y75269D02*
Y75481D01*
X43185D01*
X42762D01*
X42974D01*
Y76115D01*
X42762Y76327D01*
X42127Y75481D02*
Y76115D01*
X41916Y76327D01*
X41281D01*
Y76539D01*
X41492Y76750D01*
X41704D01*
X41281Y76327D02*
Y75481D01*
X40858Y76327D02*
X40434D01*
X40646D01*
Y75057D01*
X40858D01*
X39165Y76327D02*
X39588D01*
X39800Y76115D01*
Y75692D01*
X39588Y75481D01*
X39165D01*
X38953Y75692D01*
Y75904D01*
X39800D01*
X38530Y75481D02*
X38318D01*
Y75692D01*
X38530D01*
Y75481D01*
Y76115D02*
X38318D01*
Y76327D01*
X38530D01*
Y76115D01*
X35356Y75057D02*
X36202D01*
Y76327D01*
X35356D01*
X36202Y75692D02*
X35779D01*
X34933Y75057D02*
X34086Y76327D01*
Y75057D02*
X34933Y76327D01*
X32817Y75057D02*
X33240Y75269D01*
X33663Y75692D01*
Y76115D01*
X33452Y76327D01*
X33028D01*
X32817Y76115D01*
Y75904D01*
X33028Y75692D01*
X33663D01*
X32394Y75269D02*
X32182Y75057D01*
X31759D01*
X31547Y75269D01*
Y76115D01*
X31759Y76327D01*
X32182D01*
X32394Y76115D01*
Y75269D01*
X31124Y75057D02*
Y75269D01*
X30701Y75692D01*
X30278Y75269D01*
Y75057D01*
X30701Y75692D02*
Y76327D01*
X29008Y75057D02*
X29431Y75269D01*
X29854Y75692D01*
Y76115D01*
X29643Y76327D01*
X29220D01*
X29008Y76115D01*
Y75904D01*
X29220Y75692D01*
X29854D01*
X28585Y75269D02*
X28373Y75057D01*
X27950D01*
X27738Y75269D01*
Y76115D01*
X27950Y76327D01*
X28373D01*
X28585Y76115D01*
Y75269D01*
X27315Y75057D02*
Y76327D01*
X26680D01*
X26469Y76115D01*
Y75269D01*
X26680Y75057D01*
X27315D01*
X26046Y75269D02*
X25834Y75057D01*
X25411D01*
X25199Y75269D01*
Y75481D01*
X25411Y75692D01*
X25622D01*
X25411D01*
X25199Y75904D01*
Y76115D01*
X25411Y76327D01*
X25834D01*
X26046Y76115D01*
X24776Y75269D02*
X24565Y75057D01*
X24141D01*
X23930Y75269D01*
Y76115D01*
X24141Y76327D01*
X24565D01*
X24776Y76115D01*
Y75269D01*
X23507Y76327D02*
Y75057D01*
X22872D01*
X22660Y75269D01*
Y75692D01*
X22872Y75904D01*
X23507D01*
X58737Y73364D02*
X58526Y73152D01*
X58103D01*
X57891Y73364D01*
Y73576D01*
X58103Y73787D01*
X58314D01*
X58103D01*
X57891Y73999D01*
Y74210D01*
X58103Y74422D01*
X58526D01*
X58737Y74210D01*
X57468Y73576D02*
Y74422D01*
Y73999D01*
X57256Y73787D01*
X57045Y73576D01*
X56833D01*
X55352Y73152D02*
Y74422D01*
X55987D01*
X56198Y74210D01*
Y73787D01*
X55987Y73576D01*
X55352D01*
X53659Y74422D02*
Y73152D01*
X53236Y73576D01*
X52813Y73152D01*
Y74422D01*
X52178Y73364D02*
Y73576D01*
X52390D01*
X51966D01*
X52178D01*
Y74210D01*
X51966Y74422D01*
X50908Y74845D02*
X50697D01*
X50485Y74634D01*
Y73576D01*
X51120D01*
X51332Y73787D01*
Y74210D01*
X51120Y74422D01*
X50485D01*
X48792D02*
Y73152D01*
X48158D01*
X47946Y73364D01*
Y73787D01*
X48158Y73999D01*
X48792D01*
X47311Y73576D02*
X46888D01*
X46676Y73787D01*
Y74422D01*
X47311D01*
X47523Y74210D01*
X47311Y73999D01*
X46676D01*
X45407Y73152D02*
Y74422D01*
X46042D01*
X46253Y74210D01*
Y73787D01*
X46042Y73576D01*
X45407D01*
X44984Y74422D02*
X44349D01*
X44137Y74210D01*
X44349Y73999D01*
X44772D01*
X44984Y73787D01*
X44772Y73576D01*
X44137D01*
X43502Y73364D02*
Y73576D01*
X43714D01*
X43291D01*
X43502D01*
Y74210D01*
X43291Y74422D01*
X42656Y73576D02*
Y74210D01*
X42444Y74422D01*
X41810D01*
Y74634D01*
X42021Y74845D01*
X42233D01*
X41810Y74422D02*
Y73576D01*
X41386Y74422D02*
X40963D01*
X41175D01*
Y73152D01*
X41386D01*
X39694Y74422D02*
X40117D01*
X40328Y74210D01*
Y73787D01*
X40117Y73576D01*
X39694D01*
X39482Y73787D01*
Y73999D01*
X40328D01*
X39059Y73576D02*
X38847D01*
Y73787D01*
X39059D01*
Y73576D01*
Y74210D02*
X38847D01*
Y74422D01*
X39059D01*
Y74210D01*
X35885Y73152D02*
X36731D01*
Y74422D01*
X35885D01*
X36731Y73787D02*
X36308D01*
X35462Y73152D02*
X34615Y74422D01*
Y73152D02*
X35462Y74422D01*
X34192Y73152D02*
X33346D01*
Y73364D01*
X34192Y74210D01*
Y74422D01*
X32923Y73364D02*
X32711Y73152D01*
X32288D01*
X32076Y73364D01*
Y74210D01*
X32288Y74422D01*
X32711D01*
X32923Y74210D01*
Y73364D01*
X31653Y73152D02*
Y73364D01*
X31230Y73787D01*
X30807Y73364D01*
Y73152D01*
X31230Y73787D02*
Y74422D01*
X30383Y73152D02*
X29537D01*
Y73364D01*
X30383Y74210D01*
Y74422D01*
X29114Y73364D02*
X28902Y73152D01*
X28479D01*
X28267Y73364D01*
Y74210D01*
X28479Y74422D01*
X28902D01*
X29114Y74210D01*
Y73364D01*
X27844Y73152D02*
Y74422D01*
X27209D01*
X26998Y74210D01*
Y73364D01*
X27209Y73152D01*
X27844D01*
X26575D02*
X25728D01*
Y73364D01*
X26575Y74210D01*
Y74422D01*
X25305Y73364D02*
X25093Y73152D01*
X24670D01*
X24459Y73364D01*
Y74210D01*
X24670Y74422D01*
X25093D01*
X25305Y74210D01*
Y73364D01*
X24035Y74422D02*
Y73152D01*
X23401D01*
X23189Y73364D01*
Y73787D01*
X23401Y73999D01*
X24035D01*
X57891Y72517D02*
X58737D01*
X57891Y71671D01*
Y71459D01*
X58103Y71247D01*
X58526D01*
X58737Y71459D01*
X57468Y72517D02*
Y71671D01*
X56833D01*
X56622Y71882D01*
Y72517D01*
X55352Y71247D02*
Y72517D01*
X55987D01*
X56198Y72305D01*
Y71882D01*
X55987Y71671D01*
X55352D01*
X53659Y72517D02*
Y71247D01*
X53236Y71671D01*
X52813Y71247D01*
Y72517D01*
X52178Y71459D02*
Y71671D01*
X52390D01*
X51966D01*
X52178D01*
Y72305D01*
X51966Y72517D01*
X50908Y72940D02*
X50697D01*
X50485Y72729D01*
Y71671D01*
X51120D01*
X51332Y71882D01*
Y72305D01*
X51120Y72517D01*
X50485D01*
X48792D02*
Y71247D01*
X48158D01*
X47946Y71459D01*
Y71882D01*
X48158Y72094D01*
X48792D01*
X47311Y71671D02*
X46888D01*
X46676Y71882D01*
Y72517D01*
X47311D01*
X47523Y72305D01*
X47311Y72094D01*
X46676D01*
X45407Y71247D02*
Y72517D01*
X46042D01*
X46253Y72305D01*
Y71882D01*
X46042Y71671D01*
X45407D01*
X44984Y72517D02*
X44349D01*
X44137Y72305D01*
X44349Y72094D01*
X44772D01*
X44984Y71882D01*
X44772Y71671D01*
X44137D01*
X43502Y71459D02*
Y71671D01*
X43714D01*
X43291D01*
X43502D01*
Y72305D01*
X43291Y72517D01*
X42656Y71671D02*
Y72305D01*
X42444Y72517D01*
X41810D01*
Y72729D01*
X42021Y72940D01*
X42233D01*
X41810Y72517D02*
Y71671D01*
X41386Y72517D02*
X40963D01*
X41175D01*
Y71247D01*
X41386D01*
X39694Y72517D02*
X40117D01*
X40328Y72305D01*
Y71882D01*
X40117Y71671D01*
X39694D01*
X39482Y71882D01*
Y72094D01*
X40328D01*
X39059Y71671D02*
X38847D01*
Y71882D01*
X39059D01*
Y71671D01*
Y72305D02*
X38847D01*
Y72517D01*
X39059D01*
Y72305D01*
X35885Y71247D02*
X36731D01*
Y72517D01*
X35885D01*
X36731Y71882D02*
X36308D01*
X35462Y71247D02*
X34615Y72517D01*
Y71247D02*
X35462Y72517D01*
X34192Y71247D02*
X33346D01*
Y71459D01*
X34192Y72305D01*
Y72517D01*
X32923Y71459D02*
X32711Y71247D01*
X32288D01*
X32076Y71459D01*
Y72305D01*
X32288Y72517D01*
X32711D01*
X32923Y72305D01*
Y71459D01*
X31653Y71247D02*
Y71459D01*
X31230Y71882D01*
X30807Y71459D01*
Y71247D01*
X31230Y71882D02*
Y72517D01*
X30383Y71247D02*
X29537D01*
Y71459D01*
X30383Y72305D01*
Y72517D01*
X29114Y71459D02*
X28902Y71247D01*
X28479D01*
X28267Y71459D01*
Y72305D01*
X28479Y72517D01*
X28902D01*
X29114Y72305D01*
Y71459D01*
X27844Y71247D02*
Y72517D01*
X27209D01*
X26998Y72305D01*
Y71459D01*
X27209Y71247D01*
X27844D01*
X26575D02*
X25728D01*
Y71459D01*
X26575Y72305D01*
Y72517D01*
X25305Y71459D02*
X25093Y71247D01*
X24670D01*
X24459Y71459D01*
Y72305D01*
X24670Y72517D01*
X25093D01*
X25305Y72305D01*
Y71459D01*
X24035Y72517D02*
Y71247D01*
X23401D01*
X23189Y71459D01*
Y71882D01*
X23401Y72094D01*
X24035D01*
X58737Y70612D02*
X58314D01*
X58526D01*
Y69342D01*
X58737Y69554D01*
X57680Y70612D02*
X57045D01*
X56833Y70400D01*
X57045Y70189D01*
X57468D01*
X57680Y69977D01*
X57468Y69766D01*
X56833D01*
X56198Y69554D02*
Y69766D01*
X56410D01*
X55987D01*
X56198D01*
Y70400D01*
X55987Y70612D01*
X54082D02*
Y69342D01*
X53659Y69766D01*
X53236Y69342D01*
Y70612D01*
X52601Y69554D02*
Y69766D01*
X52813D01*
X52390D01*
X52601D01*
Y70400D01*
X52390Y70612D01*
X51332Y71035D02*
X51120D01*
X50908Y70824D01*
Y69766D01*
X51543D01*
X51755Y69977D01*
Y70400D01*
X51543Y70612D01*
X50908D01*
X49216D02*
Y69342D01*
X48581D01*
X48369Y69554D01*
Y69977D01*
X48581Y70189D01*
X49216D01*
X47734Y69766D02*
X47311D01*
X47100Y69977D01*
Y70612D01*
X47734D01*
X47946Y70400D01*
X47734Y70189D01*
X47100D01*
X45830Y69342D02*
Y70612D01*
X46465D01*
X46676Y70400D01*
Y69977D01*
X46465Y69766D01*
X45830D01*
X45407Y70612D02*
X44772D01*
X44560Y70400D01*
X44772Y70189D01*
X45195D01*
X45407Y69977D01*
X45195Y69766D01*
X44560D01*
X43926Y69554D02*
Y69766D01*
X44137D01*
X43714D01*
X43926D01*
Y70400D01*
X43714Y70612D01*
X43079Y69766D02*
Y70400D01*
X42868Y70612D01*
X42233D01*
Y70824D01*
X42444Y71035D01*
X42656D01*
X42233Y70612D02*
Y69766D01*
X41810Y70612D02*
X41386D01*
X41598D01*
Y69342D01*
X41810D01*
X40117Y70612D02*
X40540D01*
X40752Y70400D01*
Y69977D01*
X40540Y69766D01*
X40117D01*
X39905Y69977D01*
Y70189D01*
X40752D01*
X39482Y69766D02*
X39270D01*
Y69977D01*
X39482D01*
Y69766D01*
Y70400D02*
X39270D01*
Y70612D01*
X39482D01*
Y70400D01*
X36308Y69342D02*
X37154D01*
Y70612D01*
X36308D01*
X37154Y69977D02*
X36731D01*
X35885Y69342D02*
X35039Y70612D01*
Y69342D02*
X35885Y70612D01*
X34615Y69554D02*
X34404Y69342D01*
X33981D01*
X33769Y69554D01*
Y69766D01*
X33981Y69977D01*
X33769Y70189D01*
Y70400D01*
X33981Y70612D01*
X34404D01*
X34615Y70400D01*
Y70189D01*
X34404Y69977D01*
X34615Y69766D01*
Y69554D01*
X34404Y69977D02*
X33981D01*
X33346Y69554D02*
X33134Y69342D01*
X32711D01*
X32499Y69554D01*
Y70400D01*
X32711Y70612D01*
X33134D01*
X33346Y70400D01*
Y69554D01*
X32076Y69342D02*
Y69554D01*
X31653Y69977D01*
X31230Y69554D01*
Y69342D01*
X31653Y69977D02*
Y70612D01*
X30807Y69554D02*
X30595Y69342D01*
X30172D01*
X29960Y69554D01*
Y69766D01*
X30172Y69977D01*
X29960Y70189D01*
Y70400D01*
X30172Y70612D01*
X30595D01*
X30807Y70400D01*
Y70189D01*
X30595Y69977D01*
X30807Y69766D01*
Y69554D01*
X30595Y69977D02*
X30172D01*
X29537Y69554D02*
X29325Y69342D01*
X28902D01*
X28691Y69554D01*
Y70400D01*
X28902Y70612D01*
X29325D01*
X29537Y70400D01*
Y69554D01*
X28267Y69342D02*
Y70612D01*
X27633D01*
X27421Y70400D01*
Y69554D01*
X27633Y69342D01*
X28267D01*
X26151D02*
X26998D01*
Y69977D01*
X26575Y69766D01*
X26363D01*
X26151Y69977D01*
Y70400D01*
X26363Y70612D01*
X26786D01*
X26998Y70400D01*
X25728Y69554D02*
X25517Y69342D01*
X25093D01*
X24882Y69554D01*
Y70400D01*
X25093Y70612D01*
X25517D01*
X25728Y70400D01*
Y69554D01*
X24459Y70612D02*
Y69342D01*
X23824D01*
X23612Y69554D01*
Y69977D01*
X23824Y70189D01*
X24459D01*
X58737Y67437D02*
Y68707D01*
X58103D01*
X57891Y68495D01*
Y67649D01*
X58103Y67437D01*
X58737D01*
X56833Y68707D02*
X57256D01*
X57468Y68495D01*
Y68072D01*
X57256Y67861D01*
X56833D01*
X56622Y68072D01*
Y68284D01*
X57468D01*
X55987Y68707D02*
Y67649D01*
Y68072D01*
X56198D01*
X55775D01*
X55987D01*
Y67649D01*
X55775Y67437D01*
X54929Y67861D02*
X54506D01*
X54294Y68072D01*
Y68707D01*
X54929D01*
X55140Y68495D01*
X54929Y68284D01*
X54294D01*
X53871Y67861D02*
Y68495D01*
X53659Y68707D01*
X53024D01*
Y67861D01*
X52601Y68707D02*
X52178D01*
X52390D01*
Y67437D01*
X52601D01*
X51332Y67649D02*
Y67861D01*
X51543D01*
X51120D01*
X51332D01*
Y68495D01*
X51120Y68707D01*
X49216D02*
Y67437D01*
X48581D01*
X48369Y67649D01*
Y68072D01*
X48581Y68284D01*
X49216D01*
X47734Y67861D02*
X47311D01*
X47100Y68072D01*
Y68707D01*
X47734D01*
X47946Y68495D01*
X47734Y68284D01*
X47100D01*
X45830Y67437D02*
Y68707D01*
X46465D01*
X46676Y68495D01*
Y68072D01*
X46465Y67861D01*
X45830D01*
X45407Y68707D02*
X44772D01*
X44560Y68495D01*
X44772Y68284D01*
X45195D01*
X45407Y68072D01*
X45195Y67861D01*
X44560D01*
X43926Y67649D02*
Y67861D01*
X44137D01*
X43714D01*
X43926D01*
Y68495D01*
X43714Y68707D01*
X43079Y67861D02*
Y68495D01*
X42868Y68707D01*
X42233D01*
Y68919D01*
X42444Y69130D01*
X42656D01*
X42233Y68707D02*
Y67861D01*
X41810Y68707D02*
X41386D01*
X41598D01*
Y67437D01*
X41810D01*
X40117Y68707D02*
X40540D01*
X40752Y68495D01*
Y68072D01*
X40540Y67861D01*
X40117D01*
X39905Y68072D01*
Y68284D01*
X40752D01*
X39482Y67861D02*
X39270D01*
Y68072D01*
X39482D01*
Y67861D01*
Y68495D02*
X39270D01*
Y68707D01*
X39482D01*
Y68495D01*
X36308Y67437D02*
X37154D01*
Y68707D01*
X36308D01*
X37154Y68072D02*
X36731D01*
X35885Y67437D02*
X35039Y68707D01*
Y67437D02*
X35885Y68707D01*
X33769Y67437D02*
X34192Y67649D01*
X34615Y68072D01*
Y68495D01*
X34404Y68707D01*
X33981D01*
X33769Y68495D01*
Y68284D01*
X33981Y68072D01*
X34615D01*
X33346Y67649D02*
X33134Y67437D01*
X32711D01*
X32499Y67649D01*
Y68495D01*
X32711Y68707D01*
X33134D01*
X33346Y68495D01*
Y67649D01*
X32076Y67437D02*
Y67649D01*
X31653Y68072D01*
X31230Y67649D01*
Y67437D01*
X31653Y68072D02*
Y68707D01*
X29960Y67437D02*
X30383Y67649D01*
X30807Y68072D01*
Y68495D01*
X30595Y68707D01*
X30172D01*
X29960Y68495D01*
Y68284D01*
X30172Y68072D01*
X30807D01*
X29537Y67649D02*
X29325Y67437D01*
X28902D01*
X28691Y67649D01*
Y68495D01*
X28902Y68707D01*
X29325D01*
X29537Y68495D01*
Y67649D01*
X28267Y67437D02*
Y68707D01*
X27633D01*
X27421Y68495D01*
Y67649D01*
X27633Y67437D01*
X28267D01*
X26363Y68707D02*
Y67437D01*
X26998Y68072D01*
X26151D01*
X25728Y67649D02*
X25517Y67437D01*
X25093D01*
X24882Y67649D01*
Y68495D01*
X25093Y68707D01*
X25517D01*
X25728Y68495D01*
Y67649D01*
X24459Y68707D02*
Y67437D01*
X23824D01*
X23612Y67649D01*
Y68072D01*
X23824Y68284D01*
X24459D01*
X58103Y59182D02*
Y58336D01*
X57679Y57912D01*
X57256Y58336D01*
Y59182D01*
Y58547D01*
X58103D01*
X56833Y59182D02*
X56410D01*
X56621D01*
Y57912D01*
X56833D01*
X55563Y58124D02*
Y58336D01*
X55775D01*
X55352D01*
X55563D01*
Y58970D01*
X55352Y59182D01*
X53447D02*
Y57912D01*
X52813D01*
X52601Y58124D01*
Y58547D01*
X52813Y58759D01*
X53447D01*
X51966Y58336D02*
X51543D01*
X51331Y58547D01*
Y59182D01*
X51966D01*
X52178Y58970D01*
X51966Y58759D01*
X51331D01*
X50062Y57912D02*
Y59182D01*
X50697D01*
X50908Y58970D01*
Y58547D01*
X50697Y58336D01*
X50062D01*
X49639Y59182D02*
X49004D01*
X48792Y58970D01*
X49004Y58759D01*
X49427D01*
X49639Y58547D01*
X49427Y58336D01*
X48792D01*
X48157Y58124D02*
Y58336D01*
X48369D01*
X47946D01*
X48157D01*
Y58970D01*
X47946Y59182D01*
X47311Y58336D02*
Y58970D01*
X47099Y59182D01*
X46465D01*
Y59394D01*
X46676Y59605D01*
X46888D01*
X46465Y59182D02*
Y58336D01*
X46041Y59182D02*
X45618D01*
X45830D01*
Y57912D01*
X46041D01*
X44349Y59182D02*
X44772D01*
X44983Y58970D01*
Y58547D01*
X44772Y58336D01*
X44349D01*
X44137Y58547D01*
Y58759D01*
X44983D01*
X41598Y59182D02*
X42444D01*
X41598Y58336D01*
Y58124D01*
X41809Y57912D01*
X42233D01*
X42444Y58124D01*
X41175Y58336D02*
X40963D01*
Y58547D01*
X41175D01*
Y58336D01*
Y58970D02*
X40963D01*
Y59182D01*
X41175D01*
Y58970D01*
X38212Y57912D02*
X38635D01*
X38847Y58124D01*
Y58970D01*
X38635Y59182D01*
X38212D01*
X38001Y58970D01*
Y58124D01*
X38212Y57912D01*
X37577D02*
X36731Y59182D01*
Y57912D02*
X37577Y59182D01*
X36308Y58970D02*
X36096Y59182D01*
X35673D01*
X35461Y58970D01*
Y58124D01*
X35673Y57912D01*
X36096D01*
X36308Y58124D01*
Y58336D01*
X36096Y58547D01*
X35461D01*
X35038Y58124D02*
X34827Y57912D01*
X34404D01*
X34192Y58124D01*
Y58970D01*
X34404Y59182D01*
X34827D01*
X35038Y58970D01*
Y58124D01*
X33769Y57912D02*
Y58124D01*
X33346Y58547D01*
X32922Y58124D01*
Y57912D01*
X33346Y58547D02*
Y59182D01*
X31653Y57912D02*
X32076Y58124D01*
X32499Y58547D01*
Y58970D01*
X32288Y59182D01*
X31864D01*
X31653Y58970D01*
Y58759D01*
X31864Y58547D01*
X32499D01*
X31230Y58124D02*
X31018Y57912D01*
X30595D01*
X30383Y58124D01*
Y58970D01*
X30595Y59182D01*
X31018D01*
X31230Y58970D01*
Y58124D01*
X29960Y57912D02*
Y59182D01*
X29325D01*
X29114Y58970D01*
Y58124D01*
X29325Y57912D01*
X29960D01*
X28690Y58124D02*
X28479Y57912D01*
X28056D01*
X27844Y58124D01*
Y58336D01*
X28056Y58547D01*
X28267D01*
X28056D01*
X27844Y58759D01*
Y58970D01*
X28056Y59182D01*
X28479D01*
X28690Y58970D01*
X27421Y58124D02*
X27209Y57912D01*
X26786D01*
X26574Y58124D01*
Y58970D01*
X26786Y59182D01*
X27209D01*
X27421Y58970D01*
Y58124D01*
X26151Y59182D02*
Y57912D01*
X25516D01*
X25305Y58124D01*
Y58547D01*
X25516Y58759D01*
X26151D01*
X58103Y57277D02*
Y56431D01*
X57679Y56007D01*
X57256Y56431D01*
Y57277D01*
Y56642D01*
X58103D01*
X56833Y57277D02*
X56410D01*
X56621D01*
Y56007D01*
X56833D01*
X55563Y56219D02*
Y56431D01*
X55775D01*
X55352D01*
X55563D01*
Y57065D01*
X55352Y57277D01*
X53447D02*
Y56007D01*
X52813D01*
X52601Y56219D01*
Y56642D01*
X52813Y56854D01*
X53447D01*
X51966Y56431D02*
X51543D01*
X51331Y56642D01*
Y57277D01*
X51966D01*
X52178Y57065D01*
X51966Y56854D01*
X51331D01*
X50062Y56007D02*
Y57277D01*
X50697D01*
X50908Y57065D01*
Y56642D01*
X50697Y56431D01*
X50062D01*
X49639Y57277D02*
X49004D01*
X48792Y57065D01*
X49004Y56854D01*
X49427D01*
X49639Y56642D01*
X49427Y56431D01*
X48792D01*
X48157Y56219D02*
Y56431D01*
X48369D01*
X47946D01*
X48157D01*
Y57065D01*
X47946Y57277D01*
X47311Y56431D02*
Y57065D01*
X47099Y57277D01*
X46465D01*
Y57489D01*
X46676Y57700D01*
X46888D01*
X46465Y57277D02*
Y56431D01*
X46041Y57277D02*
X45618D01*
X45830D01*
Y56007D01*
X46041D01*
X44349Y57277D02*
X44772D01*
X44983Y57065D01*
Y56642D01*
X44772Y56431D01*
X44349D01*
X44137Y56642D01*
Y56854D01*
X44983D01*
X42444Y57277D02*
X42021D01*
X42233D01*
Y56007D01*
X42444Y56219D01*
X41386Y56431D02*
X41175D01*
Y56642D01*
X41386D01*
Y56431D01*
Y57065D02*
X41175D01*
Y57277D01*
X41386D01*
Y57065D01*
X38424Y56007D02*
X38847D01*
X39059Y56219D01*
Y57065D01*
X38847Y57277D01*
X38424D01*
X38212Y57065D01*
Y56219D01*
X38424Y56007D01*
X37789D02*
X36943Y57277D01*
Y56007D02*
X37789Y57277D01*
X35673Y56007D02*
X36096Y56219D01*
X36519Y56642D01*
Y57065D01*
X36308Y57277D01*
X35885D01*
X35673Y57065D01*
Y56854D01*
X35885Y56642D01*
X36519D01*
X35250Y56219D02*
X35038Y56007D01*
X34615D01*
X34404Y56219D01*
Y57065D01*
X34615Y57277D01*
X35038D01*
X35250Y57065D01*
Y56219D01*
X33980Y56007D02*
Y56219D01*
X33557Y56642D01*
X33134Y56219D01*
Y56007D01*
X33557Y56642D02*
Y57277D01*
X32711Y57065D02*
X32499Y57277D01*
X32076D01*
X31864Y57065D01*
Y56219D01*
X32076Y56007D01*
X32499D01*
X32711Y56219D01*
Y56431D01*
X32499Y56642D01*
X31864D01*
X31441Y56219D02*
X31230Y56007D01*
X30806D01*
X30595Y56219D01*
Y57065D01*
X30806Y57277D01*
X31230D01*
X31441Y57065D01*
Y56219D01*
X30172Y56007D02*
Y57277D01*
X29537D01*
X29325Y57065D01*
Y56219D01*
X29537Y56007D01*
X30172D01*
X28902Y56219D02*
X28690Y56007D01*
X28267D01*
X28056Y56219D01*
Y56431D01*
X28267Y56642D01*
X28479D01*
X28267D01*
X28056Y56854D01*
Y57065D01*
X28267Y57277D01*
X28690D01*
X28902Y57065D01*
X27632Y56219D02*
X27421Y56007D01*
X26998D01*
X26786Y56219D01*
Y57065D01*
X26998Y57277D01*
X27421D01*
X27632Y57065D01*
Y56219D01*
X26363Y57277D02*
Y56007D01*
X25728D01*
X25516Y56219D01*
Y56642D01*
X25728Y56854D01*
X26363D01*
X59373Y55372D02*
Y54102D01*
X58738D01*
X58526Y54314D01*
Y54737D01*
X58738Y54949D01*
X59373D01*
X58949D02*
X58526Y55372D01*
X58103D02*
X57680D01*
X57891D01*
Y54526D01*
X58103D01*
X56622Y55795D02*
X56410D01*
X56199Y55584D01*
Y54526D01*
X56833D01*
X57045Y54737D01*
Y55160D01*
X56833Y55372D01*
X56199D01*
X55775Y54102D02*
Y55372D01*
Y54737D01*
X55564Y54526D01*
X55141D01*
X54929Y54737D01*
Y55372D01*
X54294Y54314D02*
Y54526D01*
X54506D01*
X54083D01*
X54294D01*
Y55160D01*
X54083Y55372D01*
X52178D02*
Y54102D01*
X51755Y54526D01*
X51332Y54102D01*
Y55372D01*
X50697Y54314D02*
Y54526D01*
X50909D01*
X50485D01*
X50697D01*
Y55160D01*
X50485Y55372D01*
X49427Y55795D02*
X49216D01*
X49004Y55584D01*
Y54526D01*
X49639D01*
X49851Y54737D01*
Y55160D01*
X49639Y55372D01*
X49004D01*
X47311D02*
Y54102D01*
X46677D01*
X46465Y54314D01*
Y54737D01*
X46677Y54949D01*
X47311D01*
X45830Y54526D02*
X45407D01*
X45195Y54737D01*
Y55372D01*
X45830D01*
X46042Y55160D01*
X45830Y54949D01*
X45195D01*
X43926Y54102D02*
Y55372D01*
X44561D01*
X44772Y55160D01*
Y54737D01*
X44561Y54526D01*
X43926D01*
X43503Y55372D02*
X42868D01*
X42656Y55160D01*
X42868Y54949D01*
X43291D01*
X43503Y54737D01*
X43291Y54526D01*
X42656D01*
X42021Y54314D02*
Y54526D01*
X42233D01*
X41810D01*
X42021D01*
Y55160D01*
X41810Y55372D01*
X41175Y54526D02*
Y55160D01*
X40963Y55372D01*
X40329D01*
Y55584D01*
X40540Y55795D01*
X40752D01*
X40329Y55372D02*
Y54526D01*
X39905Y55372D02*
X39482D01*
X39694D01*
Y54102D01*
X39905D01*
X38213Y55372D02*
X38636D01*
X38847Y55160D01*
Y54737D01*
X38636Y54526D01*
X38213D01*
X38001Y54737D01*
Y54949D01*
X38847D01*
X37578Y54526D02*
X37366D01*
Y54737D01*
X37578D01*
Y54526D01*
Y55160D02*
X37366D01*
Y55372D01*
X37578D01*
Y55160D01*
X34404Y54102D02*
X35250D01*
Y55372D01*
X34404D01*
X35250Y54737D02*
X34827D01*
X33981Y54102D02*
X33134Y55372D01*
Y54102D02*
X33981Y55372D01*
X31865Y54102D02*
X32288Y54314D01*
X32711Y54737D01*
Y55160D01*
X32500Y55372D01*
X32076D01*
X31865Y55160D01*
Y54949D01*
X32076Y54737D01*
X32711D01*
X31442Y54314D02*
X31230Y54102D01*
X30807D01*
X30595Y54314D01*
Y55160D01*
X30807Y55372D01*
X31230D01*
X31442Y55160D01*
Y54314D01*
X30172Y54102D02*
Y54314D01*
X29749Y54737D01*
X29326Y54314D01*
Y54102D01*
X29749Y54737D02*
Y55372D01*
X28056Y54102D02*
X28479Y54314D01*
X28902Y54737D01*
Y55160D01*
X28691Y55372D01*
X28268D01*
X28056Y55160D01*
Y54949D01*
X28268Y54737D01*
X28902D01*
X27633Y54314D02*
X27421Y54102D01*
X26998D01*
X26786Y54314D01*
Y55160D01*
X26998Y55372D01*
X27421D01*
X27633Y55160D01*
Y54314D01*
X26363Y54102D02*
Y55372D01*
X25728D01*
X25517Y55160D01*
Y54314D01*
X25728Y54102D01*
X26363D01*
X25094Y54314D02*
X24882Y54102D01*
X24459D01*
X24247Y54314D01*
Y54526D01*
X24459Y54737D01*
X24670D01*
X24459D01*
X24247Y54949D01*
Y55160D01*
X24459Y55372D01*
X24882D01*
X25094Y55160D01*
X23824Y54314D02*
X23612Y54102D01*
X23189D01*
X22978Y54314D01*
Y55160D01*
X23189Y55372D01*
X23612D01*
X23824Y55160D01*
Y54314D01*
X22554Y55372D02*
Y54102D01*
X21920D01*
X21708Y54314D01*
Y54737D01*
X21920Y54949D01*
X22554D01*
X59055Y52197D02*
Y53467D01*
X58209D01*
X57151D02*
X57574D01*
X57785Y53255D01*
Y52832D01*
X57574Y52621D01*
X57151D01*
X56939Y52832D01*
Y53044D01*
X57785D01*
X56304Y53467D02*
Y52409D01*
Y52832D01*
X56516D01*
X56093D01*
X56304D01*
Y52409D01*
X56093Y52197D01*
X55246Y52409D02*
Y52621D01*
X55458D01*
X55035D01*
X55246D01*
Y53255D01*
X55035Y53467D01*
X53130D02*
Y52197D01*
X52707Y52621D01*
X52284Y52197D01*
Y53467D01*
X51649Y52409D02*
Y52621D01*
X51861D01*
X51437D01*
X51649D01*
Y53255D01*
X51437Y53467D01*
X50379Y53890D02*
X50168D01*
X49956Y53679D01*
Y52621D01*
X50591D01*
X50803Y52832D01*
Y53255D01*
X50591Y53467D01*
X49956D01*
X48264D02*
Y52197D01*
X47629D01*
X47417Y52409D01*
Y52832D01*
X47629Y53044D01*
X48264D01*
X46782Y52621D02*
X46359D01*
X46148Y52832D01*
Y53467D01*
X46782D01*
X46994Y53255D01*
X46782Y53044D01*
X46148D01*
X44878Y52197D02*
Y53467D01*
X45513D01*
X45724Y53255D01*
Y52832D01*
X45513Y52621D01*
X44878D01*
X44455Y53467D02*
X43820D01*
X43608Y53255D01*
X43820Y53044D01*
X44243D01*
X44455Y52832D01*
X44243Y52621D01*
X43608D01*
X42974Y52409D02*
Y52621D01*
X43185D01*
X42762D01*
X42974D01*
Y53255D01*
X42762Y53467D01*
X42127Y52621D02*
Y53255D01*
X41916Y53467D01*
X41281D01*
Y53679D01*
X41492Y53890D01*
X41704D01*
X41281Y53467D02*
Y52621D01*
X40858Y53467D02*
X40434D01*
X40646D01*
Y52197D01*
X40858D01*
X39165Y53467D02*
X39588D01*
X39800Y53255D01*
Y52832D01*
X39588Y52621D01*
X39165D01*
X38953Y52832D01*
Y53044D01*
X39800D01*
X38530Y52621D02*
X38318D01*
Y52832D01*
X38530D01*
Y52621D01*
Y53255D02*
X38318D01*
Y53467D01*
X38530D01*
Y53255D01*
X35356Y52197D02*
X36202D01*
Y53467D01*
X35356D01*
X36202Y52832D02*
X35779D01*
X34933Y52197D02*
X34086Y53467D01*
Y52197D02*
X34933Y53467D01*
X32817Y52197D02*
X33240Y52409D01*
X33663Y52832D01*
Y53255D01*
X33452Y53467D01*
X33028D01*
X32817Y53255D01*
Y53044D01*
X33028Y52832D01*
X33663D01*
X32394Y52409D02*
X32182Y52197D01*
X31759D01*
X31547Y52409D01*
Y53255D01*
X31759Y53467D01*
X32182D01*
X32394Y53255D01*
Y52409D01*
X31124Y52197D02*
Y52409D01*
X30701Y52832D01*
X30278Y52409D01*
Y52197D01*
X30701Y52832D02*
Y53467D01*
X29008Y52197D02*
X29431Y52409D01*
X29854Y52832D01*
Y53255D01*
X29643Y53467D01*
X29220D01*
X29008Y53255D01*
Y53044D01*
X29220Y52832D01*
X29854D01*
X28585Y52409D02*
X28373Y52197D01*
X27950D01*
X27738Y52409D01*
Y53255D01*
X27950Y53467D01*
X28373D01*
X28585Y53255D01*
Y52409D01*
X27315Y52197D02*
Y53467D01*
X26680D01*
X26469Y53255D01*
Y52409D01*
X26680Y52197D01*
X27315D01*
X26046Y52409D02*
X25834Y52197D01*
X25411D01*
X25199Y52409D01*
Y52621D01*
X25411Y52832D01*
X25622D01*
X25411D01*
X25199Y53044D01*
Y53255D01*
X25411Y53467D01*
X25834D01*
X26046Y53255D01*
X24776Y52409D02*
X24565Y52197D01*
X24141D01*
X23930Y52409D01*
Y53255D01*
X24141Y53467D01*
X24565D01*
X24776Y53255D01*
Y52409D01*
X23507Y53467D02*
Y52197D01*
X22872D01*
X22660Y52409D01*
Y52832D01*
X22872Y53044D01*
X23507D01*
X58737Y50504D02*
X58526Y50292D01*
X58103D01*
X57891Y50504D01*
Y50716D01*
X58103Y50927D01*
X58314D01*
X58103D01*
X57891Y51139D01*
Y51350D01*
X58103Y51562D01*
X58526D01*
X58737Y51350D01*
X57468Y50716D02*
Y51562D01*
Y51139D01*
X57256Y50927D01*
X57045Y50716D01*
X56833D01*
X55352Y50292D02*
Y51562D01*
X55987D01*
X56198Y51350D01*
Y50927D01*
X55987Y50716D01*
X55352D01*
X53659Y51562D02*
Y50292D01*
X53236Y50716D01*
X52813Y50292D01*
Y51562D01*
X52178Y50504D02*
Y50716D01*
X52390D01*
X51966D01*
X52178D01*
Y51350D01*
X51966Y51562D01*
X50908Y51985D02*
X50697D01*
X50485Y51774D01*
Y50716D01*
X51120D01*
X51332Y50927D01*
Y51350D01*
X51120Y51562D01*
X50485D01*
X48792D02*
Y50292D01*
X48158D01*
X47946Y50504D01*
Y50927D01*
X48158Y51139D01*
X48792D01*
X47311Y50716D02*
X46888D01*
X46676Y50927D01*
Y51562D01*
X47311D01*
X47523Y51350D01*
X47311Y51139D01*
X46676D01*
X45407Y50292D02*
Y51562D01*
X46042D01*
X46253Y51350D01*
Y50927D01*
X46042Y50716D01*
X45407D01*
X44984Y51562D02*
X44349D01*
X44137Y51350D01*
X44349Y51139D01*
X44772D01*
X44984Y50927D01*
X44772Y50716D01*
X44137D01*
X43502Y50504D02*
Y50716D01*
X43714D01*
X43291D01*
X43502D01*
Y51350D01*
X43291Y51562D01*
X42656Y50716D02*
Y51350D01*
X42444Y51562D01*
X41810D01*
Y51774D01*
X42021Y51985D01*
X42233D01*
X41810Y51562D02*
Y50716D01*
X41386Y51562D02*
X40963D01*
X41175D01*
Y50292D01*
X41386D01*
X39694Y51562D02*
X40117D01*
X40328Y51350D01*
Y50927D01*
X40117Y50716D01*
X39694D01*
X39482Y50927D01*
Y51139D01*
X40328D01*
X39059Y50716D02*
X38847D01*
Y50927D01*
X39059D01*
Y50716D01*
Y51350D02*
X38847D01*
Y51562D01*
X39059D01*
Y51350D01*
X35885Y50292D02*
X36731D01*
Y51562D01*
X35885D01*
X36731Y50927D02*
X36308D01*
X35462Y50292D02*
X34615Y51562D01*
Y50292D02*
X35462Y51562D01*
X34192Y50292D02*
X33346D01*
Y50504D01*
X34192Y51350D01*
Y51562D01*
X32923Y50504D02*
X32711Y50292D01*
X32288D01*
X32076Y50504D01*
Y51350D01*
X32288Y51562D01*
X32711D01*
X32923Y51350D01*
Y50504D01*
X31653Y50292D02*
Y50504D01*
X31230Y50927D01*
X30807Y50504D01*
Y50292D01*
X31230Y50927D02*
Y51562D01*
X30383Y50292D02*
X29537D01*
Y50504D01*
X30383Y51350D01*
Y51562D01*
X29114Y50504D02*
X28902Y50292D01*
X28479D01*
X28267Y50504D01*
Y51350D01*
X28479Y51562D01*
X28902D01*
X29114Y51350D01*
Y50504D01*
X27844Y50292D02*
Y51562D01*
X27209D01*
X26998Y51350D01*
Y50504D01*
X27209Y50292D01*
X27844D01*
X26575D02*
X25728D01*
Y50504D01*
X26575Y51350D01*
Y51562D01*
X25305Y50504D02*
X25093Y50292D01*
X24670D01*
X24459Y50504D01*
Y51350D01*
X24670Y51562D01*
X25093D01*
X25305Y51350D01*
Y50504D01*
X24035Y51562D02*
Y50292D01*
X23401D01*
X23189Y50504D01*
Y50927D01*
X23401Y51139D01*
X24035D01*
X57891Y49657D02*
X58737D01*
X57891Y48811D01*
Y48599D01*
X58103Y48387D01*
X58526D01*
X58737Y48599D01*
X57468Y49657D02*
Y48811D01*
X56833D01*
X56622Y49022D01*
Y49657D01*
X55352Y48387D02*
Y49657D01*
X55987D01*
X56198Y49445D01*
Y49022D01*
X55987Y48811D01*
X55352D01*
X53659Y49657D02*
Y48387D01*
X53236Y48811D01*
X52813Y48387D01*
Y49657D01*
X52178Y48599D02*
Y48811D01*
X52390D01*
X51966D01*
X52178D01*
Y49445D01*
X51966Y49657D01*
X50908Y50080D02*
X50697D01*
X50485Y49869D01*
Y48811D01*
X51120D01*
X51332Y49022D01*
Y49445D01*
X51120Y49657D01*
X50485D01*
X48792D02*
Y48387D01*
X48158D01*
X47946Y48599D01*
Y49022D01*
X48158Y49234D01*
X48792D01*
X47311Y48811D02*
X46888D01*
X46676Y49022D01*
Y49657D01*
X47311D01*
X47523Y49445D01*
X47311Y49234D01*
X46676D01*
X45407Y48387D02*
Y49657D01*
X46042D01*
X46253Y49445D01*
Y49022D01*
X46042Y48811D01*
X45407D01*
X44984Y49657D02*
X44349D01*
X44137Y49445D01*
X44349Y49234D01*
X44772D01*
X44984Y49022D01*
X44772Y48811D01*
X44137D01*
X43502Y48599D02*
Y48811D01*
X43714D01*
X43291D01*
X43502D01*
Y49445D01*
X43291Y49657D01*
X42656Y48811D02*
Y49445D01*
X42444Y49657D01*
X41810D01*
Y49869D01*
X42021Y50080D01*
X42233D01*
X41810Y49657D02*
Y48811D01*
X41386Y49657D02*
X40963D01*
X41175D01*
Y48387D01*
X41386D01*
X39694Y49657D02*
X40117D01*
X40328Y49445D01*
Y49022D01*
X40117Y48811D01*
X39694D01*
X39482Y49022D01*
Y49234D01*
X40328D01*
X39059Y48811D02*
X38847D01*
Y49022D01*
X39059D01*
Y48811D01*
Y49445D02*
X38847D01*
Y49657D01*
X39059D01*
Y49445D01*
X35885Y48387D02*
X36731D01*
Y49657D01*
X35885D01*
X36731Y49022D02*
X36308D01*
X35462Y48387D02*
X34615Y49657D01*
Y48387D02*
X35462Y49657D01*
X34192Y48387D02*
X33346D01*
Y48599D01*
X34192Y49445D01*
Y49657D01*
X32923Y48599D02*
X32711Y48387D01*
X32288D01*
X32076Y48599D01*
Y49445D01*
X32288Y49657D01*
X32711D01*
X32923Y49445D01*
Y48599D01*
X31653Y48387D02*
Y48599D01*
X31230Y49022D01*
X30807Y48599D01*
Y48387D01*
X31230Y49022D02*
Y49657D01*
X30383Y48387D02*
X29537D01*
Y48599D01*
X30383Y49445D01*
Y49657D01*
X29114Y48599D02*
X28902Y48387D01*
X28479D01*
X28267Y48599D01*
Y49445D01*
X28479Y49657D01*
X28902D01*
X29114Y49445D01*
Y48599D01*
X27844Y48387D02*
Y49657D01*
X27209D01*
X26998Y49445D01*
Y48599D01*
X27209Y48387D01*
X27844D01*
X26575D02*
X25728D01*
Y48599D01*
X26575Y49445D01*
Y49657D01*
X25305Y48599D02*
X25093Y48387D01*
X24670D01*
X24459Y48599D01*
Y49445D01*
X24670Y49657D01*
X25093D01*
X25305Y49445D01*
Y48599D01*
X24035Y49657D02*
Y48387D01*
X23401D01*
X23189Y48599D01*
Y49022D01*
X23401Y49234D01*
X24035D01*
X58737Y47752D02*
X58314D01*
X58526D01*
Y46482D01*
X58737Y46694D01*
X57680Y47752D02*
X57045D01*
X56833Y47540D01*
X57045Y47329D01*
X57468D01*
X57680Y47117D01*
X57468Y46906D01*
X56833D01*
X56198Y46694D02*
Y46906D01*
X56410D01*
X55987D01*
X56198D01*
Y47540D01*
X55987Y47752D01*
X54082D02*
Y46482D01*
X53659Y46906D01*
X53236Y46482D01*
Y47752D01*
X52601Y46694D02*
Y46906D01*
X52813D01*
X52390D01*
X52601D01*
Y47540D01*
X52390Y47752D01*
X51332Y48175D02*
X51120D01*
X50908Y47964D01*
Y46906D01*
X51543D01*
X51755Y47117D01*
Y47540D01*
X51543Y47752D01*
X50908D01*
X49216D02*
Y46482D01*
X48581D01*
X48369Y46694D01*
Y47117D01*
X48581Y47329D01*
X49216D01*
X47734Y46906D02*
X47311D01*
X47100Y47117D01*
Y47752D01*
X47734D01*
X47946Y47540D01*
X47734Y47329D01*
X47100D01*
X45830Y46482D02*
Y47752D01*
X46465D01*
X46676Y47540D01*
Y47117D01*
X46465Y46906D01*
X45830D01*
X45407Y47752D02*
X44772D01*
X44560Y47540D01*
X44772Y47329D01*
X45195D01*
X45407Y47117D01*
X45195Y46906D01*
X44560D01*
X43926Y46694D02*
Y46906D01*
X44137D01*
X43714D01*
X43926D01*
Y47540D01*
X43714Y47752D01*
X43079Y46906D02*
Y47540D01*
X42868Y47752D01*
X42233D01*
Y47964D01*
X42444Y48175D01*
X42656D01*
X42233Y47752D02*
Y46906D01*
X41810Y47752D02*
X41386D01*
X41598D01*
Y46482D01*
X41810D01*
X40117Y47752D02*
X40540D01*
X40752Y47540D01*
Y47117D01*
X40540Y46906D01*
X40117D01*
X39905Y47117D01*
Y47329D01*
X40752D01*
X39482Y46906D02*
X39270D01*
Y47117D01*
X39482D01*
Y46906D01*
Y47540D02*
X39270D01*
Y47752D01*
X39482D01*
Y47540D01*
X36308Y46482D02*
X37154D01*
Y47752D01*
X36308D01*
X37154Y47117D02*
X36731D01*
X35885Y46482D02*
X35039Y47752D01*
Y46482D02*
X35885Y47752D01*
X34615Y46694D02*
X34404Y46482D01*
X33981D01*
X33769Y46694D01*
Y46906D01*
X33981Y47117D01*
X33769Y47329D01*
Y47540D01*
X33981Y47752D01*
X34404D01*
X34615Y47540D01*
Y47329D01*
X34404Y47117D01*
X34615Y46906D01*
Y46694D01*
X34404Y47117D02*
X33981D01*
X33346Y46694D02*
X33134Y46482D01*
X32711D01*
X32499Y46694D01*
Y47540D01*
X32711Y47752D01*
X33134D01*
X33346Y47540D01*
Y46694D01*
X32076Y46482D02*
Y46694D01*
X31653Y47117D01*
X31230Y46694D01*
Y46482D01*
X31653Y47117D02*
Y47752D01*
X30807Y46694D02*
X30595Y46482D01*
X30172D01*
X29960Y46694D01*
Y46906D01*
X30172Y47117D01*
X29960Y47329D01*
Y47540D01*
X30172Y47752D01*
X30595D01*
X30807Y47540D01*
Y47329D01*
X30595Y47117D01*
X30807Y46906D01*
Y46694D01*
X30595Y47117D02*
X30172D01*
X29537Y46694D02*
X29325Y46482D01*
X28902D01*
X28691Y46694D01*
Y47540D01*
X28902Y47752D01*
X29325D01*
X29537Y47540D01*
Y46694D01*
X28267Y46482D02*
Y47752D01*
X27633D01*
X27421Y47540D01*
Y46694D01*
X27633Y46482D01*
X28267D01*
X26151D02*
X26998D01*
Y47117D01*
X26575Y46906D01*
X26363D01*
X26151Y47117D01*
Y47540D01*
X26363Y47752D01*
X26786D01*
X26998Y47540D01*
X25728Y46694D02*
X25517Y46482D01*
X25093D01*
X24882Y46694D01*
Y47540D01*
X25093Y47752D01*
X25517D01*
X25728Y47540D01*
Y46694D01*
X24459Y47752D02*
Y46482D01*
X23824D01*
X23612Y46694D01*
Y47117D01*
X23824Y47329D01*
X24459D01*
X58737Y44577D02*
Y45847D01*
X58103D01*
X57891Y45635D01*
Y44789D01*
X58103Y44577D01*
X58737D01*
X56833Y45847D02*
X57256D01*
X57468Y45635D01*
Y45212D01*
X57256Y45001D01*
X56833D01*
X56622Y45212D01*
Y45424D01*
X57468D01*
X55987Y45847D02*
Y44789D01*
Y45212D01*
X56198D01*
X55775D01*
X55987D01*
Y44789D01*
X55775Y44577D01*
X54929Y45001D02*
X54506D01*
X54294Y45212D01*
Y45847D01*
X54929D01*
X55140Y45635D01*
X54929Y45424D01*
X54294D01*
X53871Y45001D02*
Y45635D01*
X53659Y45847D01*
X53024D01*
Y45001D01*
X52601Y45847D02*
X52178D01*
X52390D01*
Y44577D01*
X52601D01*
X51332Y44789D02*
Y45001D01*
X51543D01*
X51120D01*
X51332D01*
Y45635D01*
X51120Y45847D01*
X49216D02*
Y44577D01*
X48581D01*
X48369Y44789D01*
Y45212D01*
X48581Y45424D01*
X49216D01*
X47734Y45001D02*
X47311D01*
X47100Y45212D01*
Y45847D01*
X47734D01*
X47946Y45635D01*
X47734Y45424D01*
X47100D01*
X45830Y44577D02*
Y45847D01*
X46465D01*
X46676Y45635D01*
Y45212D01*
X46465Y45001D01*
X45830D01*
X45407Y45847D02*
X44772D01*
X44560Y45635D01*
X44772Y45424D01*
X45195D01*
X45407Y45212D01*
X45195Y45001D01*
X44560D01*
X43926Y44789D02*
Y45001D01*
X44137D01*
X43714D01*
X43926D01*
Y45635D01*
X43714Y45847D01*
X43079Y45001D02*
Y45635D01*
X42868Y45847D01*
X42233D01*
Y46059D01*
X42444Y46270D01*
X42656D01*
X42233Y45847D02*
Y45001D01*
X41810Y45847D02*
X41386D01*
X41598D01*
Y44577D01*
X41810D01*
X40117Y45847D02*
X40540D01*
X40752Y45635D01*
Y45212D01*
X40540Y45001D01*
X40117D01*
X39905Y45212D01*
Y45424D01*
X40752D01*
X39482Y45001D02*
X39270D01*
Y45212D01*
X39482D01*
Y45001D01*
Y45635D02*
X39270D01*
Y45847D01*
X39482D01*
Y45635D01*
X36308Y44577D02*
X37154D01*
Y45847D01*
X36308D01*
X37154Y45212D02*
X36731D01*
X35885Y44577D02*
X35039Y45847D01*
Y44577D02*
X35885Y45847D01*
X33769Y44577D02*
X34192Y44789D01*
X34615Y45212D01*
Y45635D01*
X34404Y45847D01*
X33981D01*
X33769Y45635D01*
Y45424D01*
X33981Y45212D01*
X34615D01*
X33346Y44789D02*
X33134Y44577D01*
X32711D01*
X32499Y44789D01*
Y45635D01*
X32711Y45847D01*
X33134D01*
X33346Y45635D01*
Y44789D01*
X32076Y44577D02*
Y44789D01*
X31653Y45212D01*
X31230Y44789D01*
Y44577D01*
X31653Y45212D02*
Y45847D01*
X29960Y44577D02*
X30383Y44789D01*
X30807Y45212D01*
Y45635D01*
X30595Y45847D01*
X30172D01*
X29960Y45635D01*
Y45424D01*
X30172Y45212D01*
X30807D01*
X29537Y44789D02*
X29325Y44577D01*
X28902D01*
X28691Y44789D01*
Y45635D01*
X28902Y45847D01*
X29325D01*
X29537Y45635D01*
Y44789D01*
X28267Y44577D02*
Y45847D01*
X27633D01*
X27421Y45635D01*
Y44789D01*
X27633Y44577D01*
X28267D01*
X26363Y45847D02*
Y44577D01*
X26998Y45212D01*
X26151D01*
X25728Y44789D02*
X25517Y44577D01*
X25093D01*
X24882Y44789D01*
Y45635D01*
X25093Y45847D01*
X25517D01*
X25728Y45635D01*
Y44789D01*
X24459Y45847D02*
Y44577D01*
X23824D01*
X23612Y44789D01*
Y45212D01*
X23824Y45424D01*
X24459D01*
M02*
