G04*
G04 #@! TF.GenerationSoftware,Altium Limited,Altium Designer,22.5.1 (42)*
G04*
G04 Layer_Color=8421504*
%FSLAX43Y43*%
%MOMM*%
G71*
G04*
G04 #@! TF.SameCoordinates,A77E8290-A955-47A2-8026-EEB05ABB935E*
G04*
G04*
G04 #@! TF.FilePolarity,Positive*
G04*
G01*
G75*
%ADD17R,0.600X0.800*%
%ADD18R,0.635X1.270*%
%ADD19R,4.060X3.300*%
%ADD20R,6.350X3.810*%
%ADD21R,6.350X3.300*%
%ADD22R,1.350X1.550*%
%ADD23R,0.700X1.300*%
%ADD24R,1.450X1.050*%
%ADD25R,2.000X2.000*%
%ADD26R,1.380X0.450*%
%ADD27R,2.100X1.475*%
%ADD28R,1.900X2.375*%
%ADD29R,1.900X1.175*%
%ADD30R,1.400X0.950*%
D17*
X63500Y73660D02*
D03*
X62050D02*
D03*
X63500Y71120D02*
D03*
X62050D02*
D03*
D18*
X50165Y69469D02*
D03*
X51054D02*
D03*
X51943D02*
D03*
D19*
X59930Y60450D02*
D03*
D20*
X69070Y53260D02*
D03*
D21*
Y66550D02*
D03*
D22*
X56175Y69850D02*
D03*
X58125D02*
D03*
X56175Y64770D02*
D03*
X58125D02*
D03*
D23*
X51120Y52000D02*
D03*
X53020D02*
D03*
Y49600D02*
D03*
X52070D02*
D03*
X51120D02*
D03*
D24*
X57150Y49875D02*
D03*
Y51725D02*
D03*
D25*
X68040Y40640D02*
D03*
X64040D02*
D03*
X68040Y35560D02*
D03*
X64040D02*
D03*
D26*
X71200Y36800D02*
D03*
Y37450D02*
D03*
Y38100D02*
D03*
Y38750D02*
D03*
Y39400D02*
D03*
D27*
X71560Y35638D02*
D03*
Y40562D02*
D03*
D28*
X73860Y35188D02*
D03*
Y41013D02*
D03*
D29*
Y37263D02*
D03*
Y38938D02*
D03*
D30*
X59690Y39370D02*
D03*
Y37520D02*
D03*
X55880Y39370D02*
D03*
Y37520D02*
D03*
M02*
